<?xml version="1.0" encoding="UTF-8"?>
<svg width="1240px" height="770px" viewBox="0 0 1240 770" version="1.1" xmlns="http://www.w3.org/2000/svg" xmlns:xlink="http://www.w3.org/1999/xlink">
    <title>4044</title>
    <g id="Page-1" stroke="none" stroke-width="1" fill="none" fill-rule="evenodd">
        <g id="30-Startup-Story-Illustrations" transform="translate(-230.000000, -12407.000000)">
            <g id="4044" transform="translate(236.000000, 12407.000000)">
                <g id="BG" transform="translate(0.000000, 0.161021)">
                    <g id="Group-2" transform="translate(110.000000, 0.838979)">
                        <polygon id="Fill-1" fill="#D6EEFF" points="513.541422 671.501535 785.269368 671.501535 785.269368 85.5791431 513.541422 85.5791431"></polygon>
                        <polygon id="Fill-2" fill="#C3E4FF" points="545.838804 671.501535 762.015169 671.501535 762.015169 111.428609 545.838804 111.428609"></polygon>
                        <polygon id="Fill-3" fill="#D6EEFF" points="574.260135 221.137094 733.593138 221.137094 733.593138 139.863511 574.260135 139.863511"></polygon>
                        <polygon id="Fill-4" fill="#D6EEFF" points="574.260135 646.083325 733.593138 646.083325 733.593138 564.809743 574.260135 564.809743"></polygon>
                        <polygon id="Fill-5" fill="#D6EEFF" points="574.259436 546.021397 639.50079 546.021397 639.50079 244.569145 574.259436 244.569145"></polygon>
                        <polygon id="Fill-6" fill="#D6EEFF" points="668.353183 546.021397 733.593138 546.021397 733.593138 244.569145 668.353183 244.569145"></polygon>
                        <line x1="561.19528" y1="368.443274" x2="590.408756" y2="368.443274" id="Stroke-7" stroke="#AAD5FF" stroke-width="6.3"></line>
                        <path d="M569.445688,368.443274 C569.445688,373.002268 565.75228,376.698049 561.19535,376.698049 C556.63772,376.698049 552.944312,373.002268 552.944312,368.443274 C552.944312,363.884281 556.63772,360.1885 561.19535,360.1885 C565.75228,360.1885 569.445688,363.884281 569.445688,368.443274" id="Fill-8" fill="#AAD5FF"></path>
                        <path d="M569.445688,397.530942 C569.445688,402.089935 565.75228,405.785717 561.19535,405.785717 C556.63772,405.785717 552.944312,402.089935 552.944312,397.530942 C552.944312,392.971948 556.63772,389.276167 561.19535,389.276167 C565.75228,389.276167 569.445688,392.971948 569.445688,397.530942" id="Fill-10" fill="#AAD5FF"></path>
                        <polygon id="Fill-12" fill="#AAD5FF" points="785.269368 670.328882 794.09702 670.328882 794.09702 85.5798432 785.269368 85.5798432"></polygon>
                        <polygon id="Fill-14" fill="#AAD5FF" points="537.011151 671.501535 545.838804 671.501535 545.838804 111.428609 537.011151 111.428609"></polygon>
                        <line x1="860.414488" y1="674.506536" x2="895.618731" y2="237.649654" id="Stroke-15" stroke="#C3E4FF" stroke-width="12.6"></line>
                        <line x1="1037.43205" y1="674.506536" x2="1002.2278" y2="237.649654" id="Stroke-16" stroke="#C3E4FF" stroke-width="12.6"></line>
                        <line x1="872.604485" y1="256.186318" x2="1021.23024" y2="256.186318" id="Stroke-17" stroke="#C3E4FF" stroke-width="12.6"></line>
                        <line x1="862.51381" y1="351.829481" x2="1031.32036" y2="351.829481" id="Stroke-18" stroke="#C3E4FF" stroke-width="12.6"></line>
                        <line x1="854.54702" y1="466.429013" x2="1039.28743" y2="466.429013" id="Stroke-19" stroke="#C3E4FF" stroke-width="12.6"></line>
                        <line x1="840.982036" y1="569.827156" x2="1052.85269" y2="569.827156" id="Stroke-20" stroke="#C3E4FF" stroke-width="12.6"></line>
                        <path d="M979.030284,429.862622 L930.198637,429.862622 C927.98665,429.862622 926.193129,428.068288 926.193129,425.8553 L926.193129,349.033597 C926.193129,346.819909 927.98665,345.025575 930.198637,345.025575 L979.030284,345.025575 C981.242971,345.025575 983.036492,346.819909 983.036492,349.033597 L983.036492,425.8553 C983.036492,428.068288 981.242971,429.862622 979.030284,429.862622" id="Fill-21" fill="#C3E4FF"></path>
                        <path d="M946.410167,536.710954 L897.578519,536.710954 C895.366533,536.710954 893.572312,534.916621 893.572312,532.702932 L893.572312,463.313397 C893.572312,461.100409 895.366533,459.306075 897.578519,459.306075 L946.410167,459.306075 C948.622153,459.306075 950.416375,461.100409 950.416375,463.313397 L950.416375,532.702932 C950.416375,534.916621 948.622153,536.710954 946.410167,536.710954" id="Fill-22" fill="#C3E4FF"></path>
                        <line x1="847.818551" y1="674.506536" x2="883.022795" y2="237.649654" id="Stroke-23" stroke="#D6EEFF" stroke-width="21"></line>
                        <line x1="1024.83611" y1="674.506536" x2="989.631865" y2="237.649654" id="Stroke-24" stroke="#D6EEFF" stroke-width="21"></line>
                        <line x1="862.107871" y1="256.186318" x2="1010.73363" y2="256.186318" id="Stroke-25" stroke="#D6EEFF" stroke-width="12.6"></line>
                        <line x1="852.017196" y1="351.829481" x2="1020.82374" y2="351.829481" id="Stroke-26" stroke="#D6EEFF" stroke-width="12.6"></line>
                        <line x1="844.050406" y1="466.429013" x2="1028.79081" y2="466.429013" id="Stroke-27" stroke="#D6EEFF" stroke-width="12.6"></line>
                        <line x1="830.485422" y1="569.827156" x2="1042.35608" y2="569.827156" id="Stroke-28" stroke="#D6EEFF" stroke-width="12.6"></line>
                        <path d="M937.712183,513.152607 L889.481641,513.152607 C887.103808,513.152607 885.17523,511.223856 885.17523,508.844246 L885.17523,463.614156 C885.17523,461.234547 887.103808,459.305795 889.481641,459.305795 L942.018594,459.305795 L942.018594,508.844246 C942.018594,511.223856 940.090016,513.152607 937.712183,513.152607" id="Fill-29" fill="#E8F6FF"></path>
                        <polygon id="Fill-30" fill="#D6EEFF" points="885.17544 503.968321 942.018804 503.968321 942.018804 489.710964 885.17544 489.710964"></polygon>
                        <path d="M946.21542,459.309156 C943.899167,459.309156 942.016774,461.1854 942.016774,463.509703 L942.016774,459.309156 L946.21542,459.309156 Z" id="Fill-31" fill="#E8F6FF"></path>
                        <path d="M970.3323,404.04263 L922.101758,404.04263 C919.723926,404.04263 917.796047,402.113879 917.796047,399.734269 L917.796047,349.334006 C917.796047,346.955096 919.723926,345.025645 922.101758,345.025645 L974.638711,345.025645 L974.638711,399.734269 C974.638711,402.113879 972.710833,404.04263 970.3323,404.04263" id="Fill-32" fill="#E8F6FF"></path>
                        <polygon id="Fill-33" fill="#D6EEFF" points="917.796117 393.976299 974.638781 393.976299 974.638781 387.444448 917.796117 387.444448"></polygon>
                        <polygon id="Fill-34" fill="#D6EEFF" points="917.796117 381.066618 974.638781 381.066618 974.638781 374.534067 917.796117 374.534067"></polygon>
                        <path d="M978.835537,345.029566 C976.519284,345.029566 974.636892,347.086434 974.636892,349.633365 L974.636892,345.029566 L978.835537,345.029566 Z" id="Fill-35" fill="#E8F6FF"></path>
                        <polygon id="Fill-36" fill="#D6EEFF" points="295.623808 122.662412 329.03453 122.662412 320.038233 152.269967 304.620106 152.269967"></polygon>
                        <polygon id="Fill-37" fill="#D6EEFF" points="185.813271 122.662412 219.223993 122.662412 210.226995 152.269967 194.809569 152.269967"></polygon>
                        <polygon id="Fill-38" fill="#D6EEFF" points="185.813271 103.329254 219.223993 103.329254 210.226995 132.936809 194.809569 132.936809"></polygon>
                        <polygon id="Fill-39" fill="#D6EEFF" points="124.448386 122.662412 157.859108 122.662412 148.862111 152.269967 133.444684 152.269967"></polygon>
                        <polygon id="Fill-40" fill="#D6EEFF" points="77.8375418 122.662412 111.248264 122.662412 102.251966 152.269967 86.8338397 152.269967"></polygon>
                        <polygon id="Fill-41" fill="#D6EEFF" points="33.9091422 159.321145 330.038217 159.321145 330.038217 146.876325 33.9091422 146.876325"></polygon>
                        <polygon id="Fill-42" fill="#C3E4FF" points="330.038217 159.321145 378.754402 159.321145 378.754402 146.876325 330.038217 146.876325"></polygon>
                        <polygon id="Fill-43" fill="#AAD5FF" points="106.08442 159.321495 129.20986 195.618421 129.20986 159.321495"></polygon>
                        <polygon id="Fill-44" fill="#C3E4FF" points="93.2868781 159.321495 116.412318 195.618421 129.20979 195.618421 106.08435 159.321495"></polygon>
                        <polygon id="Fill-45" fill="#AAD5FF" points="275.692907 159.321495 298.818348 195.618421 298.818348 159.321495"></polygon>
                        <polygon id="Fill-46" fill="#C3E4FF" points="262.895366 159.321495 286.020806 195.618421 298.818278 195.618421 275.692837 159.321495"></polygon>
                        <path d="M162.730237,19.7729546 C160.664503,37.1198133 145.906264,50.5769655 128.008138,50.5769655 C110.110711,50.5769655 95.3524718,37.1198133 93.2867381,19.7729546 L162.730237,19.7729546 Z" id="Fill-47" fill="#E8F6FF"></path>
                        <path d="M162.730237,0.698901003 C160.664503,18.0457597 145.906264,31.503612 128.008138,31.503612 C110.110711,31.503612 95.3524718,18.0457597 93.2867381,0.698901003 L162.730237,0.698901003 Z" id="Fill-48" fill="#E8F6FF"></path>
                        <path d="M239.108849,23.5759898 C237.502867,37.0569451 226.034266,47.5156069 212.124853,47.5156069 C198.21544,47.5156069 186.74684,37.0569451 185.141558,23.5759898 L239.108849,23.5759898 Z" id="Fill-49" fill="#E8F6FF"></path>
                        <polygon id="Fill-50" fill="#D6EEFF" points="33.9091422 54.6309134 330.038217 54.6309134 330.038217 42.186093 33.9091422 42.186093"></polygon>
                        <polygon id="Fill-51" fill="#C3E4FF" points="330.038217 54.6309134 378.754402 54.6309134 378.754402 42.186093 330.038217 42.186093"></polygon>
                        <polygon id="Fill-52" fill="#AAD5FF" points="106.08442 54.6311934 129.20986 90.9281196 129.20986 54.6311934"></polygon>
                        <polygon id="Fill-53" fill="#C3E4FF" points="93.2868781 54.6311934 116.412318 90.9281196 129.20979 90.9281196 106.08435 54.6311934"></polygon>
                        <polygon id="Fill-54" fill="#AAD5FF" points="275.692907 54.6311934 298.818348 90.9281196 298.818348 54.6311934"></polygon>
                        <polygon id="Fill-55" fill="#C3E4FF" points="262.895366 54.6311934 286.020806 90.9281196 298.818278 90.9281196 275.692837 54.6311934"></polygon>
                        <polygon id="Fill-56" fill="#D6EEFF" points="306.047296 210.329017 345.152081 210.329017 334.622578 244.982129 316.576799 244.982129"></polygon>
                        <path d="M343.624614,257.957058 C343.624614,271.923177 335.554817,283.245051 325.599828,283.245051 C315.64484,283.245051 307.574343,271.923177 307.574343,257.957058 C307.574343,243.99094 315.64484,232.669065 325.599828,232.669065 C335.554817,232.669065 343.624614,243.99094 343.624614,257.957058" id="Fill-57" fill="#D6EEFF"></path>
                        <polygon id="Fill-58" fill="#D6EEFF" points="297.077659 287.073079 266.63398 287.073079 266.63398 245.537371 262.140729 235.771099 299.645131 235.771099 297.077659 245.537371"></polygon>
                        <polygon id="Fill-59" fill="#E1F4FF" points="13.58 644.281991 309.826637 644.281991 309.826637 280.958483 13.58 280.958483"></polygon>
                        <polygon id="Fill-60" fill="#E1F4FF" points="13.5793002 670.328882 30.636298 670.328882 30.636298 280.959183 13.5793002 280.959183"></polygon>
                        <polygon id="Fill-61" fill="#AAD5FF" points="30.6355982 670.328882 47.6925959 670.328882 47.6925959 644.282691 30.6355982 644.282691"></polygon>
                        <polygon id="Fill-62" fill="#AAD5FF" points="134.472302 670.328882 151.5286 670.328882 151.5286 644.282691 134.472302 644.282691"></polygon>
                        <polygon id="Fill-63" fill="#AAD5FF" points="309.825937 670.328882 326.882935 670.328882 326.882935 644.282691 309.825937 644.282691"></polygon>
                        <polygon id="Fill-64" fill="#BBE1FD" points="379.548646 670.328882 396.605643 670.328882 396.605643 644.282691 379.548646 644.282691"></polygon>
                        <polygon id="Fill-65" fill="#E1F4FF" points="292.769639 670.328882 309.826637 670.328882 309.826637 280.959183 292.769639 280.959183"></polygon>
                        <polygon id="Fill-66" fill="#AAD5FF" points="396.605643 670.687329 413.662641 670.687329 413.662641 644.281991 396.605643 644.281991"></polygon>
                        <polygon id="Fill-67" fill="#BBE1FD" points="117.415305 670.328882 134.472302 670.328882 134.472302 644.282691 117.415305 644.282691"></polygon>
                        <polygon id="Fill-68" fill="#C3E4FF" points="30.636298 626.695701 292.769639 626.695701 292.769639 531.462301 30.636298 531.462301"></polygon>
                        <polygon id="Fill-69" fill="#AAD5FF" points="30.636298 626.695701 111.730339 626.695701 111.730339 531.462301 30.636298 531.462301"></polygon>
                        <polygon id="Fill-70" fill="#C3E4FF" points="30.636298 510.190031 292.769639 510.190031 292.769639 414.956631 30.636298 414.956631"></polygon>
                        <polygon id="Fill-71" fill="#AAD5FF" points="30.636298 510.190031 111.730339 510.190031 111.730339 414.956631 30.636298 414.956631"></polygon>
                        <polygon id="Fill-72" fill="#C3E4FF" points="30.636298 393.684361 292.769639 393.684361 292.769639 298.450961 30.636298 298.450961"></polygon>
                        <polygon id="Fill-73" fill="#AAD5FF" points="30.636298 393.684361 111.730339 393.684361 111.730339 298.450961 30.636298 298.450961"></polygon>
                        <polygon id="Fill-74" fill="#AAD5FF" points="309.826637 644.281991 413.662641 644.281991 413.662641 280.958483 309.826637 280.958483"></polygon>
                        <path d="M303.64658,280.958553 L11.4859255,280.958553 C5.42797968,280.958553 0.516963883,276.045313 0.516963883,269.985324 L303.64658,269.985324 L303.64658,280.958553 Z" id="Fill-75" fill="#E1F4FF"></path>
                        <path d="M417.100562,280.958553 L303.64686,280.958553 L303.64686,269.985324 L428.068824,269.985324 C428.068824,276.045313 423.157808,280.958553 417.100562,280.958553" id="Fill-76" fill="#AAD5FF"></path>
                        <polygon id="Fill-77" fill="#C3E4FF" points="13.58 286.138458 309.826637 286.138458 309.826637 281.106902 13.58 281.106902"></polygon>
                        <polygon id="Fill-78" fill="#D6EEFF" points="67.5011061 626.695701 81.5833634 626.695701 81.5833634 572.876893 67.5011061 572.876893"></polygon>
                        <polygon id="Fill-79" fill="#C3E4FF" points="53.4188488 626.695701 67.5011061 626.695701 67.5011061 572.876893 53.4188488 572.876893"></polygon>
                        <polygon id="Fill-80" fill="#C3E4FF" points="81.5833634 626.695701 95.6663205 626.695701 95.6663205 572.876893 81.5833634 572.876893"></polygon>
                        <path d="M132.768422,626.695911 L95.6656907,626.695911 L95.6656907,572.877103 L132.768422,572.877103 C134.750183,572.877103 136.356865,574.485213 136.356865,576.467871 L136.356865,623.105844 C136.356865,625.088502 134.750183,626.695911 132.768422,626.695911" id="Fill-81" fill="#AAD5FF"></path>
                        <polygon id="Fill-82" fill="#C3E4FF" points="101.695576 586.047008 130.32684 586.047008 130.32684 580.718614 101.695576 580.718614"></polygon>
                        <polygon id="Fill-83" fill="#C3E4FF" points="108.075418 594.268179 123.947698 594.268179 123.947698 588.939785 108.075418 588.939785"></polygon>
                        <polygon id="Fill-84" fill="#E8F6FF" points="50.2768623 269.985254 110.955688 269.985254 110.955688 227.416912 50.2768623 227.416912"></polygon>
                        <polygon id="Fill-85" fill="#C3E4FF" points="110.956388 269.985254 155.688059 269.985254 155.688059 227.416912 110.956388 227.416912"></polygon>
                        <path d="M99.0432912,248.701013 L62.7487991,248.701013 C62.7487991,244.974428 65.7683251,241.953534 69.4932235,241.953534 L92.2988668,241.953534 C96.0237652,241.953534 99.0432912,244.974428 99.0432912,248.701013" id="Fill-86" fill="#C3E4FF"></path>
                        <polygon id="Fill-87" fill="#E8F6FF" points="126.068014 269.985254 186.74684 269.985254 186.74684 227.416912 126.068014 227.416912"></polygon>
                        <polygon id="Fill-88" fill="#C3E4FF" points="186.74684 269.985254 231.47851 269.985254 231.47851 227.416912 186.74684 227.416912"></polygon>
                        <path d="M174.834163,248.701013 L138.53967,248.701013 C138.53967,244.974428 141.559196,241.953534 145.284095,241.953534 L168.089738,241.953534 C171.814637,241.953534 174.834163,244.974428 174.834163,248.701013" id="Fill-89" fill="#C3E4FF"></path>
                        <path d="M124.544395,370.835136 C123.452747,380.013331 118.806246,388.106385 112.018436,393.686111 L67.631754,393.686111 C60.8439436,388.106385 56.1974424,380.013331 55.0987968,370.835136 L124.544395,370.835136 Z" id="Fill-90" fill="#D6EEFF"></path>
                        <path d="M124.544395,351.758702 C122.477962,369.105561 107.720422,382.563413 89.8222957,382.563413 C71.9248691,382.563413 57.1666298,369.105561 55.1008962,351.758702 L124.544395,351.758702 Z" id="Fill-91" fill="#D6EEFF"></path>
                        <path d="M219.928946,370.835136 C218.837298,380.013331 214.190797,388.106385 207.402986,393.686111 L163.016305,393.686111 C156.228494,388.106385 151.581993,380.013331 150.483348,370.835136 L219.928946,370.835136 Z" id="Fill-92" fill="#D6EEFF"></path>
                        <path d="M219.928946,351.758702 C217.862512,369.105561 203.104973,382.563413 185.206847,382.563413 C167.30942,382.563413 152.551181,369.105561 150.485447,351.758702 L219.928946,351.758702 Z" id="Fill-93" fill="#D6EEFF"></path>
                        <path d="M86.1265079,474.744696 C86.1265079,488.252255 84.6870722,500.608863 82.2861467,510.190311 L57.1341603,510.190311 C54.7381332,500.608863 53.2937991,488.252255 53.2937991,474.744696" id="Fill-94" fill="#E8F6FF"></path>
                        <path d="M84.8817494,480.680419 C90.5849097,481.806865 94.2958126,487.345987 93.1698758,493.051729 C92.0439391,498.758172 86.5073251,502.470756 80.8041648,501.343609" id="Stroke-95" stroke="#E8F6FF" stroke-width="5.6"></path>
                        <path d="M136.510255,474.744696 C136.510255,488.252255 135.070819,500.608863 132.669894,510.190311 L107.517907,510.190311 C105.12258,500.608863 103.677546,488.252255 103.677546,474.744696" id="Fill-96" fill="#E8F6FF"></path>
                        <path d="M129.812856,480.680419 C135.516016,481.806865 139.226919,487.345987 138.100982,493.051729 C136.975045,498.758172 131.438431,502.470756 125.735271,501.343609" id="Stroke-97" stroke="#E8F6FF" stroke-width="5.6"></path>
                        <path d="M241.210551,474.744696 C241.210551,488.252255 239.771115,500.608863 237.37019,510.190311 L212.218203,510.190311 C209.822876,500.608863 208.377842,488.252255 208.377842,474.744696" id="Fill-98" fill="#E8F6FF"></path>
                        <path d="M210.58346,480.680419 C204.8803,481.806865 201.169397,487.345987 202.295334,493.051729 C203.421971,498.758172 208.957885,502.470756 214.661745,501.343609" id="Stroke-99" stroke="#E8F6FF" stroke-width="5.6"></path>
                    </g>
                    <g id="Group-102" transform="translate(0.997743, 676.587967)">
                        <line x1="1225.57373" y1="0.361457065" x2="0.000279909707" y2="0.361457065" id="Fill-100" fill="#E8F6FF"></line>
                        <line x1="1225.57373" y1="0.361457065" x2="0.000279909707" y2="0.361457065" id="Stroke-101" stroke="#D6EEFF" stroke-width="14" stroke-linecap="round"></line>
                    </g>
                </g>
                <g id="Girl" transform="translate(145.000000, 130.161021)">
                    <path d="M980.0646,635.768729 C980.0646,637.166811 760.879205,638.299559 490.501124,638.299559 C220.123743,638.299559 0.939047404,637.166811 0.939047404,635.768729 C0.939047404,634.371347 220.123743,633.2379 490.501124,633.2379 C760.879205,633.2379 980.0646,634.371347 980.0646,635.768729" id="Fill-104" fill="#AFB4C8"></path>
                    <polygon id="Fill-106" fill="#687378" points="97.9181038 417.976321 814.918014 417.976321 814.918014 394.136817 97.9181038 394.136817"></polygon>
                    <polygon id="Fill-108" fill="#272636" points="814.918014 417.976321 906.641625 417.976321 906.641625 394.136817 814.918014 394.136817"></polygon>
                    <polygon id="Fill-109" fill="#272636" points="889.876363 635.076129 902.951646 635.076129 842.245528 417.975761 829.170246 417.975761"></polygon>
                    <polygon id="Fill-110" fill="#687378" points="805.927384 635.076129 819.002666 635.076129 758.296549 417.975761 745.221266 417.975761"></polygon>
                    <polygon id="Fill-111" fill="#687378" points="104.74909 635.076129 91.6738081 635.076129 152.379926 417.975761 165.455208 417.975761"></polygon>
                    <polygon id="Fill-112" fill="#272636" points="188.69807 635.076129 175.622788 635.076129 236.328905 417.975761 249.404187 417.975761"></polygon>
                    <path d="M245.193576,350.401562 L245.193576,350.401562 C233.825043,350.401562 224.522944,341.09595 224.522944,329.721569 L224.522944,83.0808547 C224.522944,71.7071737 233.825043,62.4015621 245.193576,62.4015621 C256.562108,62.4015621 265.864208,71.7071737 265.864208,83.0808547 L265.864208,329.721569 C265.864208,341.09595 256.562108,350.401562 245.193576,350.401562" id="Fill-113" fill="#00A164"></path>
                    <path d="M154.13174,205.100863 L154.13174,205.100863 C144.388783,205.100863 136.416955,197.125424 136.416955,187.378055 L136.416955,96.7827588 C136.416955,87.0346895 144.388783,79.0599511 154.13174,79.0599511 C163.874698,79.0599511 171.846526,87.0346895 171.846526,96.7827588 L171.846526,187.378055 C171.846526,197.125424 163.874698,205.100863 154.13174,205.100863" id="Fill-114" fill="#00A164"></path>
                    <path d="M257.51891,187.378125 L257.51891,187.378125 C257.51891,197.125494 249.547081,205.100933 239.804124,205.100933 L154.13146,205.100933 C144.388503,205.100933 136.416675,197.125494 136.416675,187.378125 C136.416675,177.630756 144.388503,169.655317 154.13146,169.655317 L239.804124,169.655317 C249.547081,169.655317 257.51891,177.630756 257.51891,187.378125" id="Fill-115" fill="#00A164"></path>
                    <path d="M297.88133,317.347178 L297.88133,364.029257 C297.88133,380.586412 284.340698,394.140177 267.784038,394.140177 L220.577266,394.140177 C204.020607,394.140177 190.479975,380.586412 190.479975,364.029257 L190.479975,317.347178 L297.88133,317.347178 Z" id="Fill-116" fill="#285FD7"></path>
                    <line x1="257.627865" y1="154.349364" x2="273.507142" y2="142.318998" id="Stroke-117" stroke="#23426F" stroke-width="3.5"></line>
                    <line x1="148.124178" y1="212.416255" x2="164.003456" y2="200.386589" id="Stroke-118" stroke="#23426F" stroke-width="3.5"></line>
                    <line x1="258.809783" y1="254.15576" x2="274.689761" y2="242.125394" id="Stroke-119" stroke="#23426F" stroke-width="3.5"></line>
                    <line x1="241.457901" y1="301.917869" x2="257.337878" y2="289.887503" id="Stroke-120" stroke="#23426F" stroke-width="3.5"></line>
                    <line x1="233.52463" y1="107.526708" x2="221.812508" y2="93.289654" id="Stroke-121" stroke="#23426F" stroke-width="3.5"></line>
                    <line x1="200.500673" y1="175.351749" x2="188.788551" y2="161.113995" id="Stroke-122" stroke="#23426F" stroke-width="3.5"></line>
                    <line x1="230.379424" y1="284.460046" x2="218.667302" y2="270.222992" id="Stroke-123" stroke="#23426F" stroke-width="3.5"></line>
                    <line x1="255.528892" y1="80.4959081" x2="268.689546" y2="67.7990549" id="Stroke-124" stroke="#23426F" stroke-width="3.5"></line>
                    <line x1="164.038935" y1="139.437563" x2="177.200289" y2="126.74071" id="Stroke-125" stroke="#23426F" stroke-width="3.5"></line>
                    <line x1="242.82498" y1="153.574784" x2="228.153512" y2="144.528906" id="Stroke-126" stroke="#23426F" stroke-width="3.5"></line>
                    <line x1="232.1586" y1="224.05289" x2="214.230384" y2="216.90706" id="Stroke-127" stroke="#23426F" stroke-width="3.5"></line>
                    <line x1="145.381133" y1="115.318582" x2="128.27795" y2="103.329521" id="Stroke-128" stroke="#23426F" stroke-width="3.5"></line>
                    <line x1="248.230176" y1="121.575647" x2="261.000357" y2="111.219199" id="Stroke-129" stroke="#FFFFFF" stroke-width="3.5"></line>
                    <line x1="158.421567" y1="168.232942" x2="146.148226" y2="154.382339" id="Stroke-130" stroke="#FFFFFF" stroke-width="3.5"></line>
                    <line x1="244.180442" y1="206.401562" x2="254.615476" y2="190.787429" id="Stroke-131" stroke="#FFFFFF" stroke-width="3.5"></line>
                    <polyline id="Stroke-132" stroke="#AAD5FF" stroke-width="3.5" points="297.88133 358.005812 271.032391 343.994888 244.184151 358.005812 217.331713 343.994888 190.479975 358.005812"></polyline>
                    <path d="M221.269693,365.145832 C221.269693,367.565347 219.309625,369.525602 216.891905,369.525602 C214.474185,369.525602 212.513418,367.565347 212.513418,365.145832 C212.513418,362.727017 214.474185,360.766062 216.891905,360.766062 C219.309625,360.766062 221.269693,362.727017 221.269693,365.145832" id="Fill-133" fill="#AAD5FF"></path>
                    <path d="M274.619993,365.145832 C274.619993,367.565347 272.659926,369.525602 270.242205,369.525602 C267.824485,369.525602 265.863718,367.565347 265.863718,365.145832 C265.863718,362.727017 267.824485,360.766062 270.242205,360.766062 C272.659926,360.766062 274.619993,362.727017 274.619993,365.145832" id="Fill-134" fill="#AAD5FF"></path>
                    <path d="M248.55851,339.727202 C248.55851,342.146017 246.598442,344.106972 244.180722,344.106972 C241.763002,344.106972 239.802235,342.146017 239.802235,339.727202 C239.802235,337.307687 241.763002,335.347432 244.180722,335.347432 C246.598442,335.347432 248.55851,337.307687 248.55851,339.727202" id="Fill-135" fill="#AAD5FF"></path>
                    <path d="M297.88133,335.346522 L297.88133,344.104662 C295.467108,344.104662 293.500743,342.144407 293.500743,339.729092 C293.500743,337.306777 295.467108,335.346522 297.88133,335.346522" id="Fill-136" fill="#AAD5FF"></path>
                    <path d="M194.860422,339.728952 C194.860422,342.144267 192.901054,344.104522 190.479835,344.104522 L190.479835,335.346382 C192.901054,335.346382 194.860422,337.306637 194.860422,339.728952" id="Fill-137" fill="#AAD5FF"></path>
                    <path d="M756.766842,350.401562 L756.766842,350.401562 C745.398309,350.401562 736.09691,341.09595 736.09691,329.721569 L736.09691,83.0808547 C736.09691,71.7071737 745.398309,62.4015621 756.766842,62.4015621 C768.135375,62.4015621 777.436774,71.7071737 777.436774,83.0808547 L777.436774,329.721569 C777.436774,341.09595 768.135375,350.401562 756.766842,350.401562" id="Fill-138" fill="#00A164"></path>
                    <path d="M665.704657,219.102686 L665.704657,219.102686 C655.9617,219.102686 647.990571,211.127247 647.990571,201.379878 L647.990571,110.784582 C647.990571,101.036513 655.9617,93.0617743 665.704657,93.0617743 C675.448314,93.0617743 683.419442,101.036513 683.419442,110.784582 L683.419442,201.379878 C683.419442,211.127247 675.448314,219.102686 665.704657,219.102686" id="Fill-139" fill="#00A164"></path>
                    <path d="M769.092176,201.379948 L769.092176,201.379948 C769.092176,211.127317 761.120348,219.102756 751.377391,219.102756 L665.704727,219.102756 C655.96177,219.102756 647.989941,211.127317 647.989941,201.379948 C647.989941,191.632579 655.96177,183.657141 665.704727,183.657141 L751.377391,183.657141 C761.120348,183.657141 769.092176,191.632579 769.092176,201.379948" id="Fill-140" fill="#00A164"></path>
                    <path d="M779.359194,394.136747 L732.148223,394.136747 C715.595763,394.136747 702.052332,380.587883 702.052332,364.027926 L702.052332,317.349348 L809.455086,317.349348 L809.455086,364.027926 C809.455086,380.587883 795.911655,394.136747 779.359194,394.136747" id="Fill-141" fill="#285FD7"></path>
                    <line x1="746.106971" y1="153.148148" x2="730.826" y2="141.117782" id="Stroke-142" stroke="#23426F" stroke-width="3.5"></line>
                    <line x1="711.634201" y1="187.323728" x2="696.35393" y2="175.293362" id="Stroke-143" stroke="#23426F" stroke-width="3.5"></line>
                    <line x1="727.596402" y1="286.554789" x2="742.877372" y2="298.585155" id="Stroke-144" stroke="#23426F" stroke-width="3.5"></line>
                    <line x1="725.405479" y1="232.57433" x2="740.686449" y2="244.603996" id="Stroke-145" stroke="#23426F" stroke-width="3.5"></line>
                    <line x1="769.300639" y1="106.325071" x2="780.570503" y2="92.0880175" id="Stroke-146" stroke="#23426F" stroke-width="3.5"></line>
                    <line x1="681.137269" y1="226.221493" x2="692.406433" y2="211.983739" id="Stroke-147" stroke="#23426F" stroke-width="3.5"></line>
                    <line x1="785.905932" y1="204.821246" x2="773.005594" y2="222.498548" id="Stroke-148" stroke="#23426F" stroke-width="3.5"></line>
                    <line x1="748.126309" y1="79.2946917" x2="735.461795" y2="66.5978385" id="Stroke-149" stroke="#23426F" stroke-width="3.5"></line>
                    <line x1="652.143102" y1="139.537396" x2="639.478587" y2="126.840543" id="Stroke-150" stroke="#23426F" stroke-width="3.5"></line>
                    <line x1="760.351156" y1="152.373217" x2="774.469102" y2="143.327339" id="Stroke-151" stroke="#23426F" stroke-width="3.5"></line>
                    <line x1="785.75765" y1="271.677852" x2="769.117018" y2="286.154337" id="Stroke-152" stroke="#23426F" stroke-width="3.5"></line>
                    <line x1="676.63933" y1="124.407866" x2="693.09802" y2="112.418805" id="Stroke-153" stroke="#23426F" stroke-width="3.5"></line>
                    <line x1="755.150014" y1="120.374431" x2="742.861278" y2="110.017282" id="Stroke-154" stroke="#FFFFFF" stroke-width="3.5"></line>
                    <line x1="657.548578" y1="168.332705" x2="669.358668" y2="154.482102" id="Stroke-155" stroke="#FFFFFF" stroke-width="3.5"></line>
                    <line x1="750.861867" y1="268.200009" x2="762.671957" y2="254.349405" id="Stroke-156" stroke="#FFFFFF" stroke-width="3.5"></line>
                    <line x1="759.046637" y1="205.199996" x2="749.005576" y2="189.585863" id="Stroke-157" stroke="#FFFFFF" stroke-width="3.5"></line>
                    <polygon id="Fill-158" fill="#AAD5FF" points="728.90246 359.027245 747.310722 359.027245 747.310722 340.610647 728.90246 340.610647"></polygon>
                    <polygon id="Fill-159" fill="#AAD5FF" points="801.682483 359.027245 809.454876 359.027245 809.454876 340.610647 801.682483 340.610647"></polygon>
                    <polygon id="Fill-160" fill="#AAD5FF" points="774.497023 362.840852 761.479822 349.818456 774.497023 336.796061 787.513524 349.818456"></polygon>
                    <polyline id="Fill-161" fill="#AAD5FF" points="702.052612 336.796271 715.069813 349.818666 702.052612 362.841062"></polyline>
                    <path d="M410.761637,595.276227 L410.5643,614.42442 C410.5643,614.42442 429.384729,617.226885 435.905226,635.076409 L385.438205,635.076409 L389.095926,613.571009 L391.255429,594.912179 L410.761637,595.276227 Z" id="Fill-162" fill="#0B096F"></path>
                    <polygon id="Fill-163" fill="#EF3C86" points="391.643874 590.23403 389.095995 613.570869 410.56437 614.42428 410.671436 595.976178"></polygon>
                    <path d="M500.729375,599.022135 L498.723122,614.064993 C498.723122,614.064993 536.060278,622.470988 550.09705,634.973216 L476.65784,635.076129 L483.099262,591.993219 L500.729375,599.022135 Z" id="Fill-164" fill="#0B096F"></path>
                    <polygon id="Fill-165" fill="#EF3C86" points="482.694512 595.264605 479.81914 613.468376 498.722842 614.064853 500.419095 601.577327"></polygon>
                    <path d="M364.500899,92.4056489 C364.456874,122.253335 388.606084,146.486291 418.44026,146.530459 C448.275135,146.575202 472.496422,122.414356 472.541268,92.5666698 C472.585293,62.7189834 448.435384,38.4860281 418.601907,38.4418601 C388.767032,38.3971165 364.545045,62.5579624 364.500899,92.4056489" id="Fill-166" fill="#25003F"></path>
                    <path d="M507.267926,599.75226 L473.881695,599.652147 L507.153862,432.753215 L426.632937,322.619775 C426.632937,322.619775 464.59919,409.646706 456.418129,443.897266 C451.045962,466.384194 418.377,602.247385 418.377,602.247385 L384.738151,602.247385 L404.031628,432.911436 C404.031628,432.911436 371.830815,352.578776 364.500679,325.204511 C356.65551,295.902896 362.289393,274.941467 362.289393,274.941467 L460.04226,274.941467 C460.04226,274.941467 487.370544,299.808704 506.801876,332.959421 C539.696165,389.081529 559.951831,406.770732 557.776932,435.496172 C554.823885,474.483549 507.267926,599.75226 507.267926,599.75226" id="Fill-167" fill="#272636"></path>
                    <path d="M482.402039,29.5653265 C482.378214,45.5904131 469.374309,58.5617021 453.356476,58.5379317 C437.338643,58.5140959 424.373226,45.5036018 424.396985,29.4785152 C424.42081,13.4534286 437.425415,0.482139654 453.442549,0.505910045 C469.460381,0.529745852 482.425799,13.5402399 482.402039,29.5653265" id="Fill-168" fill="#25003F"></path>
                    <polygon id="Fill-169" fill="#25003F" points="472.53547 96.346742 472.429804 167.477404 364.389555 167.316383 364.495221 96.1857211"></polygon>
                    <path d="M495.280862,222.865676 L460.022736,243.976225 L455.20409,213.029395 C455.20409,213.029395 465.769282,212.728356 461.679102,220.770303 C453.773052,236.316527 452.845151,238.536516 457.463661,258.929472 C458.231314,262.320013 460.309643,275.084775 460.309643,275.084775 L362.556777,275.084775 C362.556777,275.084775 364.774361,259.360028 379.047657,233.869709 C381.27154,229.898792 388.27698,217.484075 388.27698,217.484075 L356.65488,218.845052 C356.65488,218.845052 358.521178,174.238044 379.622172,157.185924 C392.05786,147.136815 401.091246,146.838576 424.108921,146.873581 C445.776731,146.909986 449.056573,147.733293 458.730953,155.817946 C478.908244,172.680341 495.280862,222.865676 495.280862,222.865676" id="Fill-170" fill="#FFC100"></path>
                    <path d="M434.299384,179.604943 C419.577533,179.604943 409.925546,173.369931 405.611438,161.07283 C403.074756,153.842989 401.011122,146.601246 400.990828,146.528436 L400.476494,144.7187 L402.356788,144.746004 C402.361686,144.746004 404.025749,144.769807 406.344102,144.769807 C409.206178,144.769807 413.248074,144.732702 416.251506,144.55908 C416.558707,144.541577 416.869406,144.532476 417.180806,144.532476 C423.922431,144.532476 431.36523,148.513895 431.678729,148.683317 C431.922251,148.816334 437.50435,151.93314 442.267713,159.269395 C445.899542,164.861023 446.729474,170.381942 444.545479,174.415167 C442.736562,177.754602 439.125027,179.597942 434.377059,179.604943 L434.299384,179.604943 Z" id="Fill-171" fill="#FF77CA"></path>
                    <path d="M417.181226,143.132504 L417.180526,143.132504 C416.839736,143.132504 416.500345,143.142305 416.172151,143.161208 C413.20091,143.33343 409.189104,143.369135 406.345921,143.369135 C404.061158,143.369135 402.393596,143.346032 402.376801,143.345332 L398.616214,143.292125 L399.644183,146.911596 C399.665176,146.983705 401.740007,154.266754 404.290684,161.5365 C408.759442,174.272559 419.136395,181.005335 434.299804,181.005335 L434.379578,181.005335 C439.663573,180.996934 443.711068,178.89386 445.775402,175.082564 C448.211316,170.583778 447.36109,164.541992 443.441655,158.506506 C438.487953,150.878312 432.607749,147.595585 432.35933,147.459767 C432.01854,147.274943 424.272738,143.132504 417.181226,143.132504 M417.180526,145.932869 C423.64644,145.932869 431.013664,149.914987 431.013664,149.914987 C431.013664,149.914987 436.467704,152.907177 441.093912,160.032004 C447.42477,169.780074 444.115537,178.190269 434.374679,178.204971 L434.299804,178.204971 C423.887862,178.204971 411.965108,174.955147 406.932332,160.608879 C404.380255,153.335632 402.336914,146.145696 402.336914,146.145696 C402.336914,146.145696 404.012174,146.169499 406.345921,146.169499 C409.304567,146.169499 413.321971,146.130994 416.333099,145.956672 C416.613009,145.94057 416.896418,145.932869 417.180526,145.932869" id="Fill-172" fill="#924E08"></path>
                    <path d="M431.189307,119.364619 C428.246056,124.067131 429.451767,130.263638 431.129126,133.88381 C431.695944,135.128572 435.379555,145.55853 435.916982,146.031091 C438.004409,147.86323 412.443754,159.009381 412.443754,159.009381 L410.745402,137.95554 C403.335492,138.383296 394.638698,137.991244 389.862738,134.813531 C375.634928,125.346198 374.7924,92.5182235 375.025424,90.8765098 L386.957975,77.5215708 C386.957975,77.5215708 404.95267,69.2079883 407.690887,72.7399482 C412.700571,79.2108908 424.42319,108.15966 432.909352,104.85593 C432.909352,104.85593 431.839397,95.854858 439.347975,95.8667595 C444.94337,95.8744605 446.458381,100.364145 446.454889,102.957283 C446.442287,111.713323 435.141632,113.029494 431.189307,119.364619" id="Fill-173" fill="#FF77CA"></path>
                    <polygon id="Fill-174" fill="#285FD7" points="386.380242 104.706461 384.678391 118.671879 390.640467 116.891547"></polygon>
                    <path d="M391.543106,102.371376 C392.029449,104.926709 393.818072,106.724543 395.538117,106.385699 C397.258862,106.046855 398.25954,103.700149 397.773196,101.144817 C397.286853,98.5894771 395.49823,96.79165 393.778185,97.1304941 C392.05744,97.4693382 391.056763,99.8160438 391.543106,102.371376" id="Fill-175" fill="#0B096F"></path>
                    <path d="M377.569104,106.566813 C378.055447,109.122846 379.84407,110.91998 381.564815,110.581135 C383.28486,110.242291 384.285537,107.896286 383.799194,105.340953 C383.312851,102.78492 381.524228,100.987786 379.804183,101.32663 C378.083438,101.664774 377.08346,104.01148 377.569104,106.566813" id="Fill-176" fill="#0B096F"></path>
                    <path d="M394.653813,73.7913451 C394.364806,77.3730115 393.489388,80.7684536 392.136725,83.8726578 C391.958982,84.2577079 391.78054,84.6595603 391.579704,85.0425101 C390.306815,87.6314472 388.697334,89.9970552 386.81774,92.0721254 C381.748576,97.6574527 374.696251,101.149507 367.007831,101.352534 C366.613858,101.360935 366.228282,101.363035 365.836409,101.347633 L366.715325,90.448614 L366.723023,90.4493141 C366.743316,90.1083697 366.769907,89.7765265 366.797199,89.4362822 C367.882549,75.9847307 373.284806,63.975367 381.448372,54.8230753 C382.966183,53.1183533 384.583361,51.5200452 386.285212,50.0267508 C389.602842,53.4340944 392.104535,57.6976496 393.501984,62.4596696 C394.548847,66.010532 394.97291,69.8372303 394.653813,73.7913451" id="Fill-177" fill="#25003F"></path>
                    <path d="M432.950359,76.7407592 C432.938463,84.5509761 425.865144,91.1227318 416.210359,93.1263927 C415.446205,93.290214 414.668756,93.4211311 413.871014,93.5184438 C412.590427,93.689266 411.269953,93.7704766 409.929885,93.768416 C397.228982,93.7487737 386.945099,86.0967774 386.959779,76.6721502 C386.960494,75.7655322 387.056363,74.8764164 387.245302,74.0118038 C388.980043,65.849441 398.499772,59.6193298 409.980269,59.6360981 C422.560111,59.6550345 432.763519,67.1677127 432.944061,76.4684237 C432.950359,76.5594356 432.950359,76.6504474 432.950359,76.7407592" id="Fill-178" fill="#25003F"></path>
                    <path d="M392.074095,121.554504 C392.074095,121.554504 398.607887,122.972889 399.46651,114.573895" id="Stroke-179" stroke="#0C245F" stroke-width="2.1"></path>
                    <path d="M410.745542,137.95533 C410.745542,137.95533 420.114819,138.232566 424.109131,136.049682 L411.243781,144.130834 L410.745542,137.95533 Z" id="Fill-180" fill="#EF3C86"></path>
                    <path d="M399.027052,146.40228 C399.027052,146.40228 401.476962,146.292365 405.245946,146.530396 C410.521544,146.86364 411.46484,146.873441 411.46484,146.873441 L410.84484,139.18574 L396.598135,141.064085 L399.027052,146.40228 Z" id="Fill-181" fill="#25003F"></path>
                    <polygon id="Fill-182" fill="#272636" points="472.558002 608.540364 509.592156 608.489957 509.57816 599.048528 472.544007 599.100335"></polygon>
                    <polygon id="Fill-183" fill="#272636" points="381.787623 608.541694 420.130354 608.488487 420.776246 599.047058 382.432815 599.101665"></polygon>
                    <path d="M451.437695,189.279807 L429.339524,189.246878 L429.435393,125.061121 L472.491804,125.124829 L472.427424,168.342857 C472.41063,179.923764 463.012661,189.297285 451.437695,189.279807" id="Fill-184" fill="#25003F"></path>
                    <path d="M456.652483,228.713187 C456.652483,228.713187 463.623634,216.542803 462.165305,205.100513" id="Stroke-185" stroke="#FF9A0F" stroke-width="2.1"></path>
                    <path d="M438.241772,325.062253 L448.482968,313.159303 L398.471501,264.428058 L400.500847,218.541283 L365.02579,221.538373 C365.02579,221.538373 367.670937,262.975368 373.576332,273.58805 C383.910598,292.159368 438.241772,325.062253 438.241772,325.062253" id="Fill-186" fill="#FF77CA"></path>
                    <polygon id="Fill-187" fill="#DA327C" points="364.674223 218.541353 400.794472 216.924142 400.387903 221.089685 365.744178 230.638928"></polygon>
                    <path d="M593.789205,168.232942 C593.789205,231.131932 550.328325,282.122372 496.717919,282.122372 C443.106813,282.122372 399.646632,231.131932 399.646632,168.232942 C399.646632,105.333252 443.106813,54.3435129 496.717919,54.3435129 C550.328325,54.3435129 593.789205,105.333252 593.789205,168.232942" id="Fill-188" fill="#00A164"></path>
                    <path d="M517.747465,338.761846 L474.432138,338.761846 C457.878977,338.761846 444.336246,325.212982 444.336246,308.653026 L444.336246,264.759411 L547.843357,264.759411 L547.843357,308.653026 C547.843357,325.212982 534.299926,338.761846 517.747465,338.761846" id="Fill-189" fill="#285FD7"></path>
                    <path d="M442.488912,309.309502 L458.512343,310.545162 C458.512343,310.545162 461.865661,311.400674 465.516384,312.856163 C469.167106,314.312353 470.54846,315.247675 477.304081,315.612422 C482.011463,315.867255 479.220763,319.989392 476.297806,320.990523 C473.374849,321.990953 462.815255,317.940225 462.621418,321.466585 C462.42688,324.993644 465.925052,333.110501 474.374126,336.584353 C475.50986,337.050614 475.888438,342.503624 464.139228,343.718982 C458.349995,344.31756 449.243833,341.405181 446.991959,338.016039 C446.991959,338.016039 440.395887,328.628517 437.867603,324.703106 C435.36521,320.819 442.852095,317.224732 442.488912,309.309502" id="Fill-190" fill="#FF77CA"></path>
                    <line x1="492.952643" y1="62.593317" x2="496.277271" y2="40.7805768" id="Stroke-191" stroke="#23426F" stroke-width="3.5"></line>
                    <line x1="518.237447" y1="177.400076" x2="541.51054" y2="168.018854" id="Stroke-192" stroke="#23426F" stroke-width="3.5"></line>
                    <line x1="475.897675" y1="128.751931" x2="492.734944" y2="112.089762" id="Stroke-193" stroke="#23426F" stroke-width="3.5"></line>
                    <line x1="418.737244" y1="190.339441" x2="394.989704" y2="195.373796" id="Stroke-194" stroke="#23426F" stroke-width="3.5"></line>
                    <line x1="456.652483" y1="145.932869" x2="435.777517" y2="128.977361" id="Stroke-195" stroke="#23426F" stroke-width="3.5"></line>
                    <line x1="577.998449" y1="124.663189" x2="592.246553" y2="106.212287" id="Stroke-196" stroke="#23426F" stroke-width="3.5"></line>
                    <line x1="568.276135" y1="221.82611" x2="592.513517" y2="230.168397" id="Stroke-197" stroke="#23426F" stroke-width="3.5"></line>
                    <line x1="452.207167" y1="81.4369706" x2="432.305587" y2="59.4954137" id="Stroke-198" stroke="#FFFFFF" stroke-width="3.5"></line>
                    <line x1="526.795336" y1="124.28682" x2="543.261725" y2="106.93226" id="Stroke-199" stroke="#FFFFFF" stroke-width="3.5"></line>
                    <line x1="530.390567" y1="230.168117" x2="506.472982" y2="230.168117" id="Stroke-200" stroke="#FFFFFF" stroke-width="3.5"></line>
                    <line x1="390.536481" y1="146.424823" x2="414.137068" y2="154.379958" id="Stroke-201" stroke="#FFFFFF" stroke-width="3.5"></line>
                    <line x1="463.117208" y1="200.106902" x2="461.614792" y2="221.849634" id="Stroke-202" stroke="#FFFFFF" stroke-width="3.5"></line>
                    <line x1="438.457722" y1="240.837646" x2="420.752034" y2="253.534499" id="Stroke-203" stroke="#FFFFFF" stroke-width="3.5"></line>
                    <line x1="444.336106" y1="281.099048" x2="547.843217" y2="281.099048" id="Stroke-204" stroke="#AAD5FF" stroke-width="6.3"></line>
                    <line x1="444.336106" y1="299.678488" x2="547.843217" y2="299.678488" id="Stroke-205" stroke="#AAD5FF" stroke-width="6.3"></line>
                    <path d="M526.994842,298.195904 C526.514097,305.771591 544.526287,317.152973 547.55491,317.345498 C550.584233,317.538023 553.429515,311.552244 553.910959,303.976557 C554.391704,296.400871 552.32667,290.102851 549.298047,289.910326 C546.268725,289.717801 527.476287,290.620218 526.994842,298.195904" id="Fill-206" fill="#FF77CA"></path>
                    <path d="M631.993871,394.136747 L603.809763,394.136747 C598.042223,394.136747 593.367032,389.459438 593.367032,383.689286 L593.367032,333.356933 L642.436603,333.356933 L642.436603,383.689286 C642.436603,389.459438 637.760711,394.136747 631.993871,394.136747" id="Fill-207" fill="#F38C01"></path>
                    <path d="M594.655036,377.014617 C586.476074,377.014617 579.845713,370.381254 579.845713,362.198588 C579.845713,354.015923 586.476074,347.383259 594.655036,347.383259" id="Stroke-208" stroke="#F38C01" stroke-width="4.9"></path>
                    <path d="M679.197144,347.437796 C673.615045,353.022423 665.080598,353.538391 660.134594,348.590146 C655.187889,343.641902 655.703623,335.10289 661.285722,329.518263" id="Fill-209" fill="#F38C01"></path>
                    <polygon id="Fill-210" fill="#F38C01" points="669.003323 347.351335 635.56181 380.807991 627.930772 373.173497 661.372284 339.716841"></polygon>
                    <path d="M628.601576,366.575768 C630.264939,368.312694 630.240447,371.062652 628.528799,372.775075 C626.82205,374.481898 624.074036,374.506401 622.331598,372.848585 C622.276316,375.250598 620.314149,377.176548 617.902027,377.176548 C615.489205,377.176548 613.527038,375.250598 613.471756,372.848585 C611.729318,374.506401 608.981305,374.481898 607.274555,372.775075 C605.562907,371.062652 605.538415,368.312694 607.201779,366.575768 C604.794555,366.520461 602.870176,364.558105 602.870176,362.143491 C602.870176,359.723976 604.794555,357.76092 607.201779,357.706313 C605.538415,355.968687 605.562907,353.219429 607.274555,351.506306 C608.981305,349.799484 611.729318,349.77498 613.471756,351.433496 C613.527038,349.031484 615.489205,347.104833 617.902027,347.104833 C620.314149,347.104833 622.276316,349.031484 622.331598,351.433496 C624.074036,349.77498 626.82205,349.799484 628.528799,351.506306 C630.240447,353.219429 630.264939,355.968687 628.601576,357.706313 C631.002501,357.75462 632.933178,359.723976 632.933178,362.143491 C632.933178,364.558105 631.002501,366.526762 628.601576,366.575768" id="Fill-211" fill="#FFC100"></path>
                </g>
            </g>
        </g>
    </g>
</svg>