<?xml version="1.0" encoding="UTF-8"?>
<svg width="758px" height="539px" viewBox="0 0 758 539" version="1.1" xmlns="http://www.w3.org/2000/svg" xmlns:xlink="http://www.w3.org/1999/xlink">
    <!-- Generator: Sketch 53.2 (72643) - https://sketchapp.com -->
    <title>复杂场景1:办公室多端视频</title>
    <desc>Created with Sketch.</desc>
    <defs>
        <path d="M44.4414967,0 C43.3851106,4.58653317e-14 35.3066502,1.84347608 20.2061157,5.53042825 L0,40.4898678 L21.9452433,48.188755 C37.9991317,16.0629183 45.4978829,-4.36361539e-14 44.4414967,0 Z" id="path-1"></path>
        <path d="M54.096593,0 C60.3220651,14.9054182 63.4348011,24.7093894 63.4348011,29.4119138 C63.4348011,36.4657004 58.6273504,41.9000249 54.096593,41.9000249 C51.076088,41.9000249 41.8423518,41.85203 26.3953842,41.7560403 L30.9401714,65.8353414 L0,65.8353414 L8.41577309,25.0917776 C20.0885333,18.1749426 31.1776554,15.1084021 41.6831395,15.8921562 C52.1886237,16.6759103 56.3264415,11.3785249 54.096593,0 Z" id="path-3"></path>
        <polygon id="path-5" points="0 0.0715622071 14.5470982 0.0715622071 11.5164527 12.8046878 3.06254699 12.8046878"></polygon>
        <polygon id="path-7" points="0 0.320570885 17.8270023 0.320570885 15.1529519 22.8474079 2.67405034 22.8474079"></polygon>
        <rect id="path-9" x="0" y="0" width="251" height="192"></rect>
        <polygon id="path-11" points="27.6801548 1.42108547e-14 -1.31450406e-13 161.707513 13.1204569 152.924291 26.2409139 145.238971 57.9486848 8.78322287"></polygon>
        <polygon id="path-13" points="61.8554094 38.9158212 36.5646006 141.716041 49.7322245 132.925085 62.8975881 125.229609 89.6368087 50.0290108 116.687315 27.5224996 87.546105 8.97887305"></polygon>
        <path d="M36.0812566,2.19580572 L0,65.8741715 L132.297941,61.2521768 C126.886249,52.0876234 121.063512,42.2269748 114.829728,31.6702311 C108.595945,21.1134874 102.362162,10.5567437 96.1283784,-7.10542736e-15 L36.0812566,2.19580572 Z" id="path-15"></path>
        <rect id="path-17" x="0" y="0" width="171" height="102"></rect>
        <path d="M110.721041,0 C107.708849,1.30394538e-13 84.6738254,5.24097838 41.6159717,15.7229352 L0,62 L62.574942,83.8878356 C97.6845344,27.9626119 113.733234,-1.24057015e-13 110.721041,0 Z" id="path-19"></path>
        <path d="M154.355073,0 C162.785024,37.894709 167,63.5206349 167,76.8777778 C167,96.9134921 152.373556,105.0563 139.44584,105.0563 C130.827362,105.0563 106.345416,105.0563 66,105.0563 L88.282314,146 L0,146 L24.012922,71.2711793 C57.3190812,51.6244649 88.9599325,42.9142029 118.935476,45.1403934 C148.911019,47.3665839 160.717551,32.3197861 154.355073,0 Z" id="path-21"></path>
        <polygon id="path-23" points="0 0.107179923 22.0397344 0.107179923 17.4481231 19.1777966 4.63994409 19.1777966"></polygon>
    </defs>
    <g id="页面-1" stroke="none" stroke-width="1" fill="none" fill-rule="evenodd">
        <g id="复杂场景1:办公室多端视频">
            <g id="分组-8" transform="translate(279.000000, 228.000000) scale(-1, 1) translate(-279.000000, -228.000000) translate(158.000000, 183.000000)" fill="#B8E1FF">
                <rect id="矩形" x="0" y="0" width="56" height="19" rx="9"></rect>
                <path d="M152.740371,72 C157.710934,72 161.740371,67.9705627 161.740371,63 C161.740371,58.0294373 157.710934,54 152.740371,54 L118.055215,54 C113.084652,54 109.055215,49.9705627 109.055215,45 C109.055215,40.0294373 113.084652,36 118.055215,36 L129.877462,36 C134.848025,36 138.877462,31.9705627 138.877462,27 C138.877462,22.0294373 134.848025,18 129.877462,18 L89.0490798,18 C84.078517,18 80.0490798,13.9705627 80.0490798,9 C80.0490798,4.02943725 84.078517,-8.63279275e-16 89.0490798,-1.77635684e-15 L233,7.10542736e-15 C237.970563,6.19234979e-15 242,4.02943725 242,9 C242,13.9705627 237.970563,18 233,18 L187.337262,18 C182.366699,18 178.337262,22.0294373 178.337262,27 C178.337262,31.9705627 182.366699,36 187.337262,36 L233,36 C237.970563,36 242,40.0294373 242,45 C242,49.9705627 237.970563,54 233,54 L198.063622,54 C193.093059,54 189.063622,58.0294373 189.063622,63 C189.063622,67.9705627 193.093059,72 198.063622,72 L233,72 C237.970563,72 242,76.0294373 242,81 C242,85.9705627 237.970563,90 233,90 L54,90 C49.0294373,90 45,85.9705627 45,81 C45,76.0294373 49.0294373,72 54,72 L152.740371,72 Z" id="合并形状"></path>
            </g>
            <g id="分组-13" transform="translate(382.000000, 62.000000)">
                <g id="分组-4">
                    <polygon id="路径-155" stroke="#313B40" stroke-width="1.5" fill="#13161A" stroke-linecap="round" stroke-linejoin="round" points="0 127 0 142.615385 51 185 51 164.923077"></polygon>
                    <polygon id="路径-156" stroke="#313B40" stroke-width="1.5" fill="#FFFFFF" stroke-linecap="round" stroke-linejoin="round" points="302 185 51 185 51 165 302 165"></polygon>
                    <polygon id="路径-157" stroke="#313B40" stroke-width="1.5" fill="#FFFFFF" stroke-linecap="round" stroke-linejoin="round" points="0 127 219.22963 127 302 165 51.4518519 165"></polygon>
                    <g id="分组-3" transform="translate(74.000000, 0.000000)">
                        <path d="" id="路径-24-copy" stroke="#979797" stroke-width="0.9"></path>
                        <g id="分组-8-copy-3" transform="translate(0.000000, 86.771084)" fill="#B8E1FF">
                            <rect id="矩形" x="0" y="0" width="26.8300622" height="9.41151272" rx="4.05"></rect>
                            <path d="M73.9960287,34.7502008 C76.2327819,34.7502008 78.0460287,32.936954 78.0460287,30.7002008 L78.0460287,30.1126506 C78.0460287,27.8758974 76.2327819,26.0626506 73.9960287,26.0626506 L56.691374,26.0626506 C54.4546208,26.0626506 52.641374,24.2494038 52.641374,22.0126506 L52.641374,21.4251004 C52.641374,19.1883472 54.4546208,17.3751004 56.691374,17.3751004 L62.9715895,17.3751004 C65.2083427,17.3751004 67.0215895,15.5618536 67.0215895,13.3251004 L67.0215895,12.7375502 C67.0215895,10.500797 65.2083427,8.6875502 62.9715895,8.6875502 L42.7046859,8.6875502 C40.4679327,8.6875502 38.6546859,6.87430344 38.6546859,4.6375502 L38.6546859,4.05 C38.6546859,1.81324676 40.4679327,-4.77293516e-16 42.7046859,-8.8817842e-16 L112.697028,-8.8817842e-16 C114.933781,-1.29906332e-15 116.747028,1.81324676 116.747028,4.05 L116.747028,4.6375502 C116.747028,6.87430344 114.933781,8.6875502 112.697028,8.6875502 L90.0990094,8.6875502 C87.8622561,8.6875502 86.0490094,10.500797 86.0490094,12.7375502 L86.0490094,13.3251004 C86.0490094,15.5618536 87.8622561,17.3751004 90.0990094,17.3751004 L112.697028,17.3751004 C114.933781,17.3751004 116.747028,19.1883472 116.747028,21.4251004 L116.747028,22.0126506 C116.747028,24.2494038 114.933781,26.0626506 112.697028,26.0626506 L95.2712343,26.0626506 C93.0344811,26.0626506 91.2212343,27.8758974 91.2212343,30.1126506 L91.2212343,30.7002008 C91.2212343,32.936954 93.0344811,34.7502008 95.2712343,34.7502008 L112.697028,34.7502008 C114.933781,34.7502008 116.747028,36.5634476 116.747028,38.8002008 L116.747028,39.387751 C116.747028,41.6245042 114.933781,43.437751 112.697028,43.437751 L25.8041045,43.437751 C23.5673513,43.437751 21.7541045,41.6245042 21.7541045,39.387751 L21.7541045,38.8002008 C21.7541045,36.5634476 23.5673513,34.7502008 25.8041045,34.7502008 L73.9960287,34.7502008 Z" id="合并形状"></path>
                        </g>
                        <rect id="矩形" fill="#13161A" x="118.771543" y="98.3092369" width="60.7354479" height="2.71485944"></rect>
                        <polygon id="路径-9-copy-8" fill="#FFC1C7" points="107.007283 101.024096 87.054142 138.477267 98.9236614 147.855422 118.771543 101.332328"></polygon>
                        <path d="M74.9070524,140.389558 C82.3302738,144.688086 89.7534952,148.986613 97.1767166,153.285141" id="路径-17-copy-6" stroke="#13161A" stroke-width="0.9"></path>
                        <path d="M86.9468727,137.490145 C90.2785201,139.524503 95.0381447,142.198329 101.225746,145.511625 L97.3452826,152.606426 L74.9070524,140.001244 C78.6387996,137.18531 82.6520731,136.348278 86.9468727,137.490145 Z" id="矩形-copy-7" fill="#0092FF"></path>
                        <path d="M87.7289803,136.317269 C92.2279024,139.258367 96.7268244,142.199465 101.225746,145.140562" id="路径-16-copy-6" stroke="#13161A" stroke-width="0.9"></path>
                        <polygon id="路径-9-copy-7" fill="#FFC1C7" points="114.922549 104.08256 108.648968 145.327832 123.088924 149.891566 126.194764 100.345382"></polygon>
                        <path d="M97.8515549,151.927711 C106.399507,153.285141 114.947459,154.64257 123.495411,156" id="路径-17-copy-5" stroke="#13161A" stroke-width="0.9"></path>
                        <path d="M108.476245,144.461847 C112.351287,145.237186 117.807568,146.121046 124.845087,147.113427 L123.574021,155.321285 L97.8515549,151.154517 C100.446628,147.11858 103.988191,144.88769 108.476245,144.461847 Z" id="矩形-copy-6" fill="#0092FF"></path>
                        <path d="M108.648968,143.783133 C114.047674,144.688086 119.446381,145.593039 124.845087,146.497992" id="路径-16-copy-5" stroke="#13161A" stroke-width="0.9"></path>
                        <g id="椭圆形" transform="translate(87.728980, 74.554217)">
                            <mask id="mask-2" fill="white">
                                <use xlink:href="#path-1"></use>
                            </mask>
                            <use id="Mask" fill="#0092FF" xlink:href="#path-1"></use>
                            <ellipse fill="#FFC82C" mask="url(#mask-2)" cx="21.9045878" cy="8.03145917" rx="4.38091755" ry="4.38079591"></ellipse>
                        </g>
                        <g id="椭圆形" transform="translate(105.949615, 56.907631)">
                            <mask id="mask-4" fill="white">
                                <use xlink:href="#path-3"></use>
                            </mask>
                            <use id="Mask" fill="#0092FF" xlink:href="#path-3"></use>
                            <ellipse fill="#FFC82C" mask="url(#mask-4)" cx="11.6661703" cy="27.0656403" rx="5.10394952" ry="5.12052655"></ellipse>
                        </g>
                        <path d="M87.7289803,20.5717095 C81.7119536,16.8387654 78.568941,16.5555697 78.2999425,19.7221226 C78.0309439,22.8886755 80.6643246,25.7818368 86.2000845,28.4016064 L87.7289803,20.5717095 Z" id="路径-12-copy-7" fill="#FFC1C7"></path>
                        <path d="M144.212359,42.5977925 C132.226509,25.5265642 128.395558,14.0197399 132.719506,8.07731966 C139.205428,-0.836310706 144.649715,0.421673168 150.439771,2.51181757 C156.229827,4.60196197 165.860538,14.1240443 175.754437,19.5271372 C185.648336,24.9302301 207.087898,23.1632645 208.944776,42.5977925 C210.182695,55.5541445 190.608411,67.6882137 150.221925,79 L144.212359,42.5977925 Z" id="路径-33-copy-3" fill="#2F2E41"></path>
                        <path d="M85.2389968,18.2208835 C85.3243631,21.8406961 85.4097293,25.4605087 85.4950956,29.0803213" id="路径-20-copy-5" stroke="#13161A" stroke-width="0.9"></path>
                        <path d="M131.327667,30.1692559 C129.898317,31.1922722 128.796138,33.0788048 128.02113,35.8288536 C127.246121,38.5789025 125.06271,52.39231 121.470896,77.2690763 L166.685063,73.4917816 C163.663745,65.3136874 161.274163,57.644442 159.516317,50.4840456 C156.879548,39.743451 155.765018,30.1692559 150.533711,28.14136 C147.046173,26.7894294 142.835765,26.6868682 137.902487,27.8336766 L131.327667,30.1692559 Z" id="路径-4-copy" fill="#FFC82C"></path>
                        <polygon id="路径-37" fill="#FFC82C" points="129.934509 41.3620302 132.268309 30.3667701 108.703294 35.4186464 85.7044654 18.2208835 85.7044654 46.5191928 111.249318 48.7630522"></polygon>
                        <path d="M136.632958,69.8032129 C129.239687,70.3334288 126.35709,72.0683554 127.985168,75.0079926 C129.613246,77.9476298 133.965259,78.6826601 141.041207,77.2130836 L136.632958,69.8032129 Z" id="路径-12-copy-5" fill="#FFC1C7"></path>
                        <path d="M135.6425,69.124498 C136.317339,72.7443106 136.992177,76.3641232 137.667015,79.9839357" id="路径-20-copy-4" stroke="#13161A" stroke-width="0.9"></path>
                        <path d="M151.685433,28.4016064 C156.449057,31.9786464 159.745214,36.4148949 161.573904,41.7103521 C163.402594,47.0058092 165.106313,57.1334201 166.685063,72.0931845 L137.761739,80.6626506 L135.6425,64.375337 L153.817809,62.6302677 C150.489969,46.6654483 148.863734,36.9775908 148.939101,33.5666953 C149.014469,30.1557997 149.929913,28.4341034 151.685433,28.4016064 Z" id="路径-38" fill="#FFC82C"></path>
                        <polyline id="路径-47" stroke="#13161A" stroke-width="0.9" points="149.538224 42.6546185 150.488943 61.7114892 140.366368 67.7670683"></polyline>
                        <g id="分组-6" transform="translate(128.894117, 0.000000)">
                            <path d="M15.945758,28.2059551 C15.9457703,28.2096361 15.9457764,28.2133185 15.9457764,28.2170024 C15.9457764,30.0054141 14.5047321,31.4552082 12.727114,31.4552082 C10.9494958,31.4552082 9.50845156,30.0054141 9.50845156,28.2170024 C9.50845156,28.2133185 9.50845767,28.2096361 9.50846989,28.2059551 C9.50845768,28.2040213 9.50845156,28.2020861 9.50845156,28.2001494 L9.50845156,23.5237377 C9.50845156,23.0266815 9.91139529,22.6237377 10.4084516,22.6237377 L15.0457764,22.6237377 C15.5428327,22.6237377 15.9457764,23.0266815 15.9457764,23.5237377 L15.9457764,28.2001494 C15.9457764,28.2020861 15.9457703,28.2040213 15.945758,28.2059551 Z" id="合并形状-copy-6" fill="#FFC1C7" transform="translate(12.727114, 27.039473) rotate(10.000000) translate(-12.727114, -27.039473) "></path>
                            <path d="M9.45428817,30.1667286 C12.8408817,31.5495312 15.1992498,32.8430296 15.9995646,28.5738177" id="路径-11-copy-3" stroke="#13161A" stroke-width="0.9"></path>
                            <g id="分组-5-copy-3" transform="translate(14.938750, 14.454296) rotate(10.000000) translate(-14.938750, -14.454296) translate(2.351030, 2.468480)" fill-rule="nonzero">
                                <ellipse id="椭圆形" fill="#2F2E41" cx="12.3731235" cy="11.7817704" rx="11.7106643" ry="11.7817704"></ellipse>
                                <ellipse id="椭圆形" fill="#FFC1C7" cx="10.5396564" cy="13.2943069" rx="10.5396564" ry="10.6036522"></ellipse>
                                <path d="M18.5002954,19.533324 C14.079638,23.9808232 6.96613027,24.1505811 2.34084539,19.9189557 C5.24485286,23.1317806 9.67010879,24.4769525 13.8565693,23.4194602 C16.9506352,22.6379048 19.5434801,20.6376338 21.110265,17.9466729 C21.6634359,16.9965991 22.0887062,15.9604292 22.3629777,14.8614016 C23.4140878,10.6495213 22.0770344,6.19739559 18.8835997,3.27575525 C23.0896861,7.92912444 22.9209527,15.0858248 18.5002954,19.533324 Z" id="路径" fill="#000000" opacity="0.1"></path>
                            </g>
                            <g id="分组-4-copy-4" transform="translate(15.679396, 12.124100) rotate(10.000000) translate(-15.679396, -12.124100) translate(6.688168, 2.535448)" fill="#2F2E41" fill-rule="nonzero">
                                <path d="M6.0123501,15.5584261 C6.17734702,15.3247268 6.33658256,15.0607715 6.48180626,14.7740234 C7.11803287,13.5177766 7.24440037,12.2997754 6.76405599,12.0535416 C6.2837116,11.8073078 5.37855197,12.6260852 4.74232536,13.882332 C4.73252627,13.9016805 4.72284813,13.92102 4.7132913,13.940347 C1.4355991,12.2484273 -0.386249656,8.14587169 0.0691453447,5.00747185 C0.539453853,1.76629409 5.77270807,1.06952107 8.19295886,0.243306645 C10.6132096,-0.582907783 11.5622348,2.54001591 15.0439952,4.12135288 C18.5257555,5.70268985 18.0450338,12.7195727 17.439182,15.1605851 C16.8333303,17.6015974 15.7549489,18.9655537 14.0765627,19.0973033 C12.6517655,19.2091466 8.26652871,18.0532249 6.0123501,15.5584261 Z" id="合并形状"></path>
                            </g>
                            <path d="" id="路径-24-copy-3" stroke="#979797" stroke-width="0.9"></path>
                        </g>
                        <path d="M115.397351,80.6626506 L105.949615,122.742972" id="路径-31" stroke="#13161A" stroke-width="0.9"></path>
                        <g id="分组-9" transform="translate(4.049030, 39.939759)">
                            <g id="分组-8-copy-2" transform="translate(0.000000, 9.442472)">
                                <polygon id="路径-42" stroke="#13161A" stroke-width="0.9" fill="#13161A" points="121.46827 23.9693511 121.46827 31.9591348 186.930212 31.9591348 186.930212 23.9693511"></polygon>
                                <polygon id="路径-43" stroke="#13161A" stroke-width="0.9" fill="#FFFFFF" points="0 23.9693511 0 31.9591348 121.46827 31.9591348 121.46827 23.9693511"></polygon>
                                <g id="分组-10" transform="translate(61.097812, 0.000000)">
                                    <polygon id="路径-45" stroke="#13161A" stroke-width="0.9" fill="#0092FF" points="32.003616 21.0639752 32.003616 23.9693511 59.6431026 23.9693511 59.6431026 21.0639752"></polygon>
                                    <polygon id="路径-44" stroke="#13161A" stroke-width="0.9" fill="#FFFFFF" points="0 0 10.5657871 23.9693511 33.4583259 23.9693511 22.8925387 0"></polygon>
                                    <g id="分组-7" transform="translate(10.182969, 9.442472)">
                                        <ellipse id="椭圆形" fill="#0092FF" cx="1.43955659" cy="1.45268794" rx="1.43955659" ry="1.45268794"></ellipse>
                                        <ellipse id="椭圆形-copy-9" fill="#FFC82C" cx="7.19778296" cy="1.45268794" rx="1.43955659" ry="1.45268794"></ellipse>
                                        <ellipse id="椭圆形-copy-10" fill="#13CE66" cx="12.3801867" cy="1.45268794" rx="1.43955659" ry="1.45268794"></ellipse>
                                    </g>
                                </g>
                            </g>
                            <g id="分组-10-copy-2" transform="translate(7.273549, 0.000000)">
                                <polygon id="矩形-copy-5" fill="#54B6FF" points="5.81883928 0 11.6376786 4.77311753 11.6376786 33.4118227 5.81883928 33.4118227"></polygon>
                                <polygon id="矩形-copy-8" fill="#FFDD7B" points="12.3650335 0 18.1838727 4.77311753 18.1838727 33.4118227 12.3650335 33.4118227"></polygon>
                                <polygon id="矩形-copy-10" fill="#4FF297" points="19.6385826 0 25.4574218 4.77311753 25.4574218 33.4118227 19.6385826 33.4118227"></polygon>
                                <rect id="矩形" fill="#0092FF" x="0" y="0" width="5.81883928" height="33.4118227"></rect>
                                <rect id="矩形-copy-9" fill="#FFC82C" x="7.2735491" y="0" width="5.81883928" height="33.4118227"></rect>
                                <rect id="矩形-copy-11" fill="#13CE66" x="13.8197433" y="0" width="5.81883928" height="33.4118227"></rect>
                            </g>
                            <g id="分组-9-copy-2" transform="translate(34.913036, 1.452688)">
                                <path d="M5.95325244,15.0502227 C8.10110377,12.4883118 9.17603303,10.5733587 9.17804021,9.30536351 C9.18105098,7.40337069 7.74377288,5.86377885 5.96778972,5.8665889 C4.19180656,5.86939895 2.74964703,7.41354678 2.74663627,9.31553961 C2.74462909,10.5835348 3.81350114,12.4950958 5.95325244,15.0502227 Z" id="椭圆形-copy-11" fill="#1FA85C" transform="translate(5.962339, 10.458404) rotate(-49.000000) translate(-5.962339, -10.458404) "></path>
                                <path d="M15.5791005,11.3689544 C17.863599,11.3656752 19.7182093,9.513658 19.7214885,7.23235821 C19.7247677,4.95105842 17.875474,3.10435785 15.5909755,3.10763704 C14.0679765,3.10982316 11.6474911,4.62962898 8.32951934,7.6670545 C11.6395744,10.1371739 14.0561015,11.3711405 15.5791005,11.3689544 Z" id="椭圆形" fill="#28B968" transform="translate(14.025506, 7.238295) rotate(-58.000000) translate(-14.025506, -7.238295) "></path>
                                <path d="M10.5466462,24.6956951 C14.1834207,19.8304458 16.001808,16.3682062 16.001808,14.3089763 C16.001808,11.2201313 13.5594489,8.71612767 10.5466462,8.71612767 C7.53384351,8.71612767 5.09148437,11.2201313 5.09148437,14.3089763 C5.09148437,16.3682062 6.90987164,19.8304458 10.5466462,24.6956951 Z" id="椭圆形" fill="#13CE66"></path>
                                <g id="路径-2" transform="translate(2.909420, 18.884943)">
                                    <mask id="mask-6" fill="white">
                                        <use xlink:href="#path-5"></use>
                                    </mask>
                                    <use id="Mask" fill="#7C868D" xlink:href="#path-5"></use>
                                    <polygon fill="#4D5761" mask="url(#mask-6)" points="11.4283408 -0.909508974 11.4283408 13.6426346 16.8835026 4.54754487 15.974309 0.0715622071"></polygon>
                                </g>
                            </g>
                        </g>
                    </g>
                    <rect id="矩形" stroke="#313B40" stroke-width="1.5" fill="#FFC82C" x="56.75" y="189.75" width="101.5" height="16.5"></rect>
                    <rect id="矩形-copy-2" stroke="#313B40" stroke-width="1.5" fill="#FFFFFF" x="60.75" y="212.75" width="101.5" height="16.5"></rect>
                    <rect id="矩形-copy-3" stroke="#313B40" stroke-width="1.5" fill="#313B40" x="121.75" y="234.75" width="81.5" height="16.5"></rect>
                </g>
                <g id="分组-7" transform="translate(6.000000, 46.000000)">
                    <path d="M19.2503068,50.6341758 C21.6590435,52.13935 22.8635915,53.343202 22.8639507,54.2457318 C22.8644895,55.5995265 24.2203244,58.7589196 30.5422255,60.1152288 C32.2419625,60.4798926 32.2180035,60.8928833 32.348329,60.1159472 C32.5117988,59.1414207 32.9923933,55.9272962 31.8944682,54.2493239 C30.6121136,52.2894856 27.1180398,51.8953348 24.8947395,51.5389507 C21.1317844,50.9357674 19.2503068,50.6341758 19.2503068,50.6341758 Z" id="路径-113" fill="#396F30" transform="translate(25.922391, 55.595556) rotate(-27.000000) translate(-25.922391, -55.595556) "></path>
                    <path d="M32,57 C35.9484118,59.3447764 38.5334244,62.6879137 39.7550376,67.0294118 C40.9766508,71.3709098 41.2992376,78.3611059 40.7227978,88" id="路径-112" stroke="#39742C" stroke-width="3"></path>
                    <path d="M47,43.3688246 C47,41.0190382 47,27.9392847 51.1283186,22.5434326 C53.880531,18.9461978 58.5044248,16.0983869 65,14 C60.05,20.2951608 56.75,24.1921652 55.1,25.691013 C52.625,27.9392847 56,31.8846591 56,36.4827173 C56,41.0807755 47,45.7186111 47,43.3688246 Z" id="路径-110" fill="#39742C"></path>
                    <path d="M48,43 C42.6153846,48.6666667 39.2820513,65.3333333 38,93" id="路径-105-copy" stroke="#39742C" stroke-width="3"></path>
                    <path d="M49.8895025,59.2509147 C47.2142758,61.3989581 45.5574247,67.7157891 44.9189494,78.2014078" id="路径-105-copy-2" stroke="#39742C" stroke-width="3" transform="translate(47.404226, 68.726161) rotate(9.000000) translate(-47.404226, -68.726161) "></path>
                    <path d="M40,43 C43.5555556,56.4375 44.7407407,70.7708333 43.5555556,86" id="路径-103" stroke="#26BC69" stroke-width="3" stroke-linecap="round"></path>
                    <path d="M57,42 C50.5384615,47.1 46.5384615,62.1 45,87" id="路径-105" stroke="#6DBE5C" stroke-width="3"></path>
                    <path d="M32.1504364,46.0234942 C35.4628508,46.0247418 40.2638321,42.8909923 42.0136388,37.1827048 C43.0961456,33.6513091 41.8519982,28.7610967 41.8502572,24.1413954 C41.8479295,17.9651724 39.5695507,18.2628856 37.7428207,14.2829703 C35.9945513,10.4739978 34.7559135,2.25297137 32.1339401,2.25198384 C30.5055342,2.25137052 27.9214002,5.4854942 26.2263864,6.92150975 C24.2617039,8.58598849 23.4608866,9.28655924 22.547666,12.6733155 C22.0531361,14.5073213 22.9501766,16.5887951 23.1247072,18.9161712 C23.2653447,20.7915818 22.6917658,23.3294397 22.6924655,25.1862053 C22.6942375,29.8879076 24.9270634,31.8183136 25.9998754,35.1913265 C27.6850559,40.4896786 28.8743961,46.0222603 32.1504364,46.0234942 Z" id="椭圆形" fill="#26BC69" transform="translate(32.428364, 24.137739) rotate(-25.000000) translate(-32.428364, -24.137739) "></path>
                    <path d="M28,15 C37.2105263,25.8387097 41.5267952,35.172043 40.9488067,43" id="路径-107" stroke="#0F944A"></path>
                    <path d="M55.4973451,45 C48.9557522,39.3004778 49.5504425,34.9508424 57.2814159,31.9510939 C65.0123894,28.9513453 69.9185841,26.9676474 72,26 C70.2159292,34.1670439 67.8371681,38.8505155 64.8637168,40.0504149 C61.8902655,41.2503143 58.7681416,42.900176 55.4973451,45 Z" id="路径-109" fill="#6DBE5C"></path>
                    <path d="M24,44 C29.1159875,46.3670025 33.1786834,49.9862434 36.1880878,54.8577225 C41.5005281,63.4572456 42,73.780364 42,85" id="路径-104" stroke="#0F944A" stroke-width="3" stroke-linecap="round"></path>
                    <path d="M24.879304,49.2692928 C10.8605875,39.3405415 3.24884478,33.0224863 2.04407586,30.3151272 C0.236922475,26.2540886 9.01868689,33.9259279 16.9475816,33.927388 C24.8764764,33.9288482 14.2386657,37.67818 21.9160268,38.4401983 C27.0342674,38.9482105 28.0220265,42.5579087 24.879304,49.2692928 Z" id="路径-108" fill="#0F944A" transform="translate(14.238898, 39.199260) rotate(-11.000000) translate(-14.238898, -39.199260) "></path>
                    <g id="路径-2" transform="translate(34.000000, 81.000000)">
                        <mask id="mask-8" fill="white">
                            <use xlink:href="#path-7"></use>
                        </mask>
                        <use id="Mask" fill="#4D5761" xlink:href="#path-7"></use>
                        <path d="M12.4789016,-2.68137776 L13.2443082,25.6187558 C22.4027099,22.0851343 26.9819108,19.287684 26.9819108,17.2264048 C26.9819108,15.1651256 24.5647426,7.80341413 19.7304062,-4.85872955 L12.4789016,-2.68137776 Z" fill="#313B40" mask="url(#mask-8)"></path>
                    </g>
                    <path d="M51.1157679,59.6153846 C49.8185053,57.7692308 59.8206773,49 61.2956762,49 C62.9216553,49 61.3161329,53.9551157 60.6290274,55 C59.7494077,56.3376414 60.4091444,58.578883 58.4669229,59.6153846 C55.0075559,61.4615385 52.4130306,61.4615385 51.1157679,59.6153846 Z" id="路径-111" fill="#39742C"></path>
                </g>
            </g>
            <g id="分组-5" transform="translate(19.000000, 0.000000)">
                <g id="分组-3-copy">
                    <mask id="mask-10" fill="white">
                        <use xlink:href="#path-9"></use>
                    </mask>
                    <rect stroke="#13161A" x="0.5" y="0.5" width="250" height="191"></rect>
                    <g id="分组-7" mask="url(#mask-10)">
                        <g transform="translate(183.429975, 63.003161) rotate(23.000000) translate(-183.429975, -63.003161) translate(143.175258, 41.077235)">
                            <path d="M22.5249545,1.55573008 C22.5249545,1.55573008 29.940173,1.56133675 44.7706101,1.5725501 L57.1985249,17.2352668 C55.6488494,20.364759 52.3723575,20.3622816 47.3690491,17.2278346 C39.8640867,12.5261642 22.5249545,1.55573008 22.5249545,1.55573008 Z" id="路径-41-copy" fill="#0092FF" transform="translate(39.861740, 10.568130) scale(-1, 1) rotate(-175.000000) translate(-39.861740, -10.568130) "></path>
                            <path d="M9.44334049,20.0383827 C2.51822413,20.7284097 -0.598078231,22.1084636 0.0944334049,24.1785445 C1.13320086,27.2836658 2.69135204,34.0114286 13.0790266,34.0114286 C20.0041429,34.0114286 26.7561314,33.3214016 33.3349919,31.9413477 C51.3815698,29.2244506 61.9423722,27.5856366 65.0173993,27.0249057 C68.0924263,26.4641747 70.6893449,25.1703742 72.8081552,23.143504 L77.4826087,6.58285714 L74.8856901,8.13541779 L66.0561667,18.4858221 L16.1953289,14.3456604 L9.44334049,20.0383827 Z" id="路径-36" fill="#619CC8"></path>
                            <path d="M9.37237852,17.844097 C3.12412617,18.534124 3.47073493e-16,20.0866846 0,22.501779 C0,26.1244205 2.08275078,31.8171429 12.4965047,31.8171429 C19.4390073,31.8171429 26.3815099,31.1271159 33.3240125,29.747062 C51.4158982,27.0301649 62.0032147,25.3913509 65.0859619,24.8306199 C68.1687091,24.269889 70.8589289,23.4936087 73.1566212,22.501779 L79.6652174,4.38857143 L74.9790281,5.94113208 L66.1273373,16.2915364 L16.1413186,12.1513747 L9.37237852,17.844097 Z" id="路径-36" fill="#8ECFFF"></path>
                            <path d="M18.7200669,15.36 L18.7200669,15.36 C19.8327637,15.36 20.7347826,16.262019 20.7347826,17.3747157 L20.7347826,19.7485714 L14.1869565,19.7485714 L15.7025803,17.1074353 C16.3228445,16.0265587 17.4738639,15.36 18.7200669,15.36 Z" id="矩形" fill="#FFFFFF"></path>
                            <ellipse id="椭圆形" fill="#FFFFFF" cx="30.0108696" cy="18.1028571" rx="1.63695652" ry="1.64571429"></ellipse>
                            <ellipse id="椭圆形-copy-11" fill="#FFFFFF" cx="36.5586957" cy="18.1028571" rx="1.63695652" ry="1.64571429"></ellipse>
                            <ellipse id="椭圆形-copy-12" fill="#FFFFFF" cx="43.1065217" cy="18.1028571" rx="1.63695652" ry="1.64571429"></ellipse>
                            <path d="M22.9173913,25.2342857 C22.9173913,25.2342857 30.3882111,25.2342857 45.3298507,25.2342857 L57.8391304,40.498882 C56.2754705,43.5518012 52.9744106,43.5518012 47.9359507,40.498882 C40.3782609,35.9195031 22.9173913,25.2342857 22.9173913,25.2342857 Z" id="路径-41" fill="#0092FF"></path>
                            <path d="M66.5695652,17.5542857 C66.5695652,17.5542857 68.9041964,17.5542857 73.5734588,17.5542857 L77.4826087,22.324472 C76.993965,23.2785093 75.9623837,23.2785093 74.387865,22.324472 C72.026087,20.8934161 66.5695652,17.5542857 66.5695652,17.5542857 Z" id="路径-41-copy-2" fill="#0092FF"></path>
                        </g>
                    </g>
                    <path d="M25.6553332,48.8294817 C26.0839673,42.7361454 36.5855634,37.8591549 49.4776978,37.8591549 C58.9937501,37.8591549 67.2073564,40.5163038 71.0289739,44.3584466 C83.7454997,44.5998819 93.8992806,49.5884467 93.8992806,55.7070423 C93.8992806,61.9797524 83.2275528,67.0647887 70.0633094,67.0647887 C65.0517676,67.0647887 60.40146,66.327827 56.563658,65.0689325 C52.3276866,68.2207976 44.913967,70.3098592 36.476259,70.3098592 C23.3120156,70.3098592 12.6402878,65.2248228 12.6402878,58.9521127 C12.6402878,54.5358108 17.9301188,50.7082228 25.6553332,48.8294817 Z" id="合并形状" fill="#D5EDFF" mask="url(#mask-10)"></path>
                    <path d="M227.899938,109.223848 C228.328572,103.130512 238.830168,98.2535211 251.722302,98.2535211 C261.238354,98.2535211 269.451961,100.91067 273.273578,104.752813 C285.990104,104.994248 296.143885,109.982813 296.143885,116.101408 C296.143885,122.374119 285.472157,127.459155 272.307914,127.459155 C267.296372,127.459155 262.646064,126.722193 258.808262,125.463299 C254.572291,128.615164 247.158571,130.704225 238.720863,130.704225 C225.55662,130.704225 214.884892,125.619189 214.884892,119.346479 C214.884892,114.930177 220.174723,111.102589 227.899938,109.223848 Z" id="合并形状-copy-7" fill="#D5EDFF" mask="url(#mask-10)"></path>
                    <rect id="矩形" stroke="#13161A" mask="url(#mask-10)" x="0.5" y="18.528169" width="49.5611511" height="172.070423"></rect>
                    <rect id="矩形" stroke="#13161A" mask="url(#mask-10)" x="0.5" y="18.528169" width="49.5611511" height="30.5492958"></rect>
                    <rect id="矩形-copy-5" stroke="#13161A" mask="url(#mask-10)" x="200.938849" y="18.528169" width="49.5611511" height="172.070423"></rect>
                    <rect id="矩形-copy-5" stroke="#13161A" mask="url(#mask-10)" x="200.938849" y="18.528169" width="49.5611511" height="30.5492958"></rect>
                    <g mask="url(#mask-10)">
                        <g transform="translate(127.275943, 222.405842) scale(-1, 1) translate(-127.275943, -222.405842) translate(3.551887, 55.887324)">
                            <path d="M28.4838568,102.802106 C19.4208115,102.802106 3.92429971e-15,91.8707777 0,102.802106 C0,113.733434 14.2419284,120.999698 25.8944153,120.999698 C37.5469022,120.999698 37.5469022,102.802106 28.4838568,102.802106 Z" id="路径-12-copy-2" stroke="none" fill="#FFC1C7" fill-rule="evenodd"></path>
                            <path d="M226.120791,135.188428 C217.047198,135.171548 197.57675,120.577165 197.603784,135.135376 C197.630819,149.693587 211.907292,159.397236 223.573341,159.418939 C235.239389,159.440642 235.194385,135.205308 226.120791,135.188428 Z" id="路径-12-copy-3" stroke="none" fill="#FFC1C7" fill-rule="evenodd" transform="translate(215.128285, 144.047000) rotate(32.000000) translate(-215.128285, -144.047000) "></path>
                            <g id="椭圆形" stroke="none" stroke-width="1" fill="none" fill-rule="evenodd" transform="translate(83.096227, 166.881235)">
                                <mask id="mask-12" fill="white">
                                    <use xlink:href="#path-11"></use>
                                </mask>
                                <use id="Mask" fill="#FFC1C7" xlink:href="#path-11"></use>
                                <ellipse fill="#FF9BA5" mask="url(#mask-12)" cx="18.587314" cy="67.9525632" rx="8.74697129" ry="8.78322287"></ellipse>
                            </g>
                            <g id="椭圆形" stroke="none" stroke-width="1" fill="none" fill-rule="evenodd" transform="translate(94.029941, 165.526273)">
                                <mask id="mask-14" fill="white">
                                    <use xlink:href="#path-13"></use>
                                </mask>
                                <use id="Mask" fill="#FFC1C7" transform="translate(76.625958, 75.347457) rotate(-47.000000) translate(-76.625958, -75.347457) " xlink:href="#path-13"></use>
                                <ellipse fill="#FF9BA5" mask="url(#mask-14)" cx="45.9215993" cy="61.6222044" rx="10.9337141" ry="10.9790286"></ellipse>
                            </g>
                            <path d="M87.4697129,325.295039 L63.4155418,329.299583 L87.4697129,330.784554 L107.386095,315.907206 C106.269805,326.112097 105.667469,331.362969 105.579086,331.659819 C105.490703,331.956669 106.193429,331.956669 107.687263,331.659819 L113.710627,308.826497 L109.494272,308.826497 L96.0922886,319.858637 L87.4697129,325.295039 Z" id="路径-8" stroke="none" fill="#0E1E5A" fill-rule="evenodd"></path>
                            <path d="M188.465077,310.749462 L164.349339,314.794889 L188.453776,316.226857 L208.444936,301.341182 C207.305163,311.525853 206.690681,316.766377 206.601492,317.062755 C206.512302,317.359132 207.216585,317.35768 208.714342,317.058397 L214.798064,294.263031 L210.572363,294.271747 L197.117958,305.307236 L188.465077,310.749462 Z" id="路径-8-copy" stroke="none" fill="#0E1E5A" fill-rule="evenodd" transform="translate(189.573701, 305.773492) rotate(-47.000000) translate(-189.573701, -305.773492) "></path>
                            <g id="椭圆形-copy-7" stroke="none" stroke-width="1" fill="none" fill-rule="evenodd" transform="translate(68.882399, 138.566144)">
                                <mask id="mask-16" fill="white">
                                    <use xlink:href="#path-15"></use>
                                </mask>
                                <use id="Mask" fill="#0092FF" xlink:href="#path-15"></use>
                                <ellipse id="椭圆形" fill="#FFC82C" mask="url(#mask-16)" cx="19.1339997" cy="81.793763" rx="9.29365699" ry="9.3321743"></ellipse>
                                <ellipse id="椭圆形" fill="#FFC82C" mask="url(#mask-16)" cx="70.522456" cy="88.3811802" rx="9.29365699" ry="9.3321743"></ellipse>
                            </g>
                            <path d="M98.2235175,117.029465 C90.3891375,125.508107 69.8512567,135.272435 67.7890275,135.272435 C66.3311989,135.272435 51.0239992,135.272435 21.8674282,135.272435 L21.8674282,100.139544 C43.0059422,100.139544 58.3131419,100.139544 67.7890275,100.139544 C82.0028558,100.139544 91.791973,66.8944549 96.2166841,61.8813216 C98.8573742,58.889458 104.391444,57.8625827 112.818893,58.8006956 L121.364227,57.321332 C127.926024,57.3052294 134.850709,56.9392618 142.138283,56.2234292 C153.069645,55.1496802 158.538855,59.0250622 162.91234,65.006652 C165.827997,68.9943786 188.788797,94.8265961 231.794739,142.503305 L195.713483,162.720006 L160.725597,106.27251 L175.505653,142.503305 L95.1233127,142.969253 C96.2901283,133.357628 97.3235303,124.711028 98.2235187,117.029454 Z" id="合并形状-copy-2" stroke="none" fill="#8ECFFF" fill-rule="evenodd"></path>
                            <path d="M149.334307,74.2819504 C153.227051,84.902712 157.119795,95.5234737 161.012539,106.144235" id="路径-6-copy" stroke="#13161A" stroke-width="1" fill="none"></path>
                            <path d="M104.963655,65.006652 L95.1233127,119.901795" id="路径-5-copy" stroke="#13161A" stroke-width="1" fill="none"></path>
                            <path d="M133.921505,55.7261509 C133.924215,55.8006206 133.925581,55.8754344 133.925581,55.9505688 C133.925581,59.2855213 131.233226,61.9890345 127.912039,61.9890345 C124.590851,61.9890345 121.898496,59.2855213 121.898496,55.9505688 C121.898496,55.8754344 121.899862,55.8006206 121.902572,55.7261509 C121.899868,55.6835896 121.898496,55.6406666 121.898496,55.597423 L121.898496,47.5204916 C121.898496,46.4159221 122.793926,45.5204916 123.898496,45.5204916 L131.925581,45.5204916 C133.030151,45.5204916 133.925581,46.4159221 133.925581,47.5204916 L133.925581,55.597423 C133.925581,55.6406666 133.924209,55.6835896 133.921505,55.7261509 Z" id="合并形状-copy-3" stroke="none" fill="#FFC1C7" fill-rule="evenodd" transform="translate(127.912039, 53.754763) rotate(10.000000) translate(-127.912039, -53.754763) "></path>
                            <path d="M121.340417,59.4068492 C127.326477,61.8827118 131.495071,64.1986783 132.909688,56.5547944" id="路径-11-copy" stroke="#13161A" stroke-width="1" fill="none"></path>
                            <g id="分组-5-copy" stroke="none" stroke-width="1" fill="none" fill-rule="evenodd" transform="translate(131.590461, 30.377508) rotate(10.000000) translate(-131.590461, -30.377508) translate(108.503197, 7.858990)">
                                <ellipse id="椭圆形" fill="#2F2E41" fill-rule="nonzero" cx="23.1171517" cy="21.9701341" rx="21.8794553" ry="21.9701341"></ellipse>
                                <ellipse id="椭圆形" fill="#FFC1C7" fill-rule="nonzero" cx="19.6916191" cy="24.7906466" rx="19.6916191" ry="19.7732305"></ellipse>
                                <path d="M34.5647674,36.4248949 C26.3054942,44.7183984 13.0150718,45.0349556 4.37348564,37.1440043 C9.79914726,43.1351407 18.0670121,45.6435588 25.8887269,43.6715931 C31.6694815,42.2141825 36.5137869,38.4841639 39.4410674,33.4661769 C40.4745766,31.6945204 41.2691244,29.7623157 41.7815558,27.7128968 C43.7453825,19.8587652 41.2473175,11.5566344 35.2809087,6.10848624 C43.1392911,14.7858872 42.8240405,28.1313915 34.5647674,36.4248949 Z" id="路径" fill="#000000" fill-rule="nonzero" opacity="0.1"></path>
                            </g>
                            <path d="M130.452332,38.9625449 C130.865195,38.4224127 131.279317,37.8009204 131.669993,37.1214443 C133.179624,34.4958501 133.767518,31.9987246 132.983091,31.5439583 C132.217886,31.1003362 130.429461,32.7640768 128.940922,35.283147 C125.120465,33.5715529 122.457598,29.7239211 122.457598,25.2517658 C122.457598,25.2336814 122.457642,25.2156073 122.457729,25.1975435 C122.09807,25.233405 121.733283,25.2517658 121.364227,25.2517658 C115.325703,25.2517658 110.430512,20.3362872 110.430512,14.2727372 C110.430512,8.20918711 115.325703,3.29370858 121.364227,3.29370858 C122.328118,3.29370858 123.262878,3.4189536 124.153246,3.65412096 C126.155128,1.4112218 129.06241,0 132.297941,0 C137.41521,0 141.711394,3.53004916 142.903164,8.29735385 C144.032931,7.90086242 145.247282,7.68532001 146.511769,7.68532001 C152.550293,7.68532001 157.445483,12.6007985 157.445483,18.6643486 C157.445483,20.8272348 156.822634,22.8440439 155.747216,24.5437889 C158.123165,26.557744 159.632226,29.5704545 159.632226,32.9370858 C159.632226,38.9484338 154.82096,43.8313931 148.854215,43.9150238 C146.869754,45.9482792 144.10405,47.2098229 141.044912,47.2098229 C135.945576,47.2098229 131.66158,43.7044719 130.452332,38.9625431 Z" id="合并形状-copy" stroke="none" fill="#2F2E41" fill-rule="evenodd"></path>
                            <path d="M4.21343134,102.354091 C7.36240028,103.348974 10.5113692,104.343856 13.6603381,105.338738" id="路径-13-copy" stroke="#13161A" stroke-width="1" fill="none"></path>
                            <path d="M5.63165629,106.918042 C8.35827161,107.770798 11.0848869,108.623554 13.8115022,109.476311" id="路径-14-copy" stroke="#13161A" stroke-width="1" fill="none"></path>
                            <path d="M6.65583551,111.178412 C8.93801706,111.679832 11.2201986,112.181253 13.5023802,112.682674" id="路径-15-copy" stroke="#13161A" stroke-width="1" fill="none"></path>
                            <path d="M217.85384,155.882124 C219.130448,157.216023 220.407056,158.549921 221.683664,159.883819" id="路径-7-copy" stroke="#13161A" stroke-width="1" fill="none"></path>
                            <path d="M221.945741,153.391578 C223.278636,154.929404 224.611532,156.467231 225.944428,158.005057" id="路径-18-copy" stroke="#13161A" stroke-width="1" fill="none"></path>
                            <path d="M226.252435,150.167161 C227.617753,151.114455 228.983071,152.061749 230.348388,153.009043" id="路径-19-copy" stroke="#13161A" stroke-width="1" fill="none"></path>
                            <path d="M21.4053379,100.982829 C21.6581784,107.550942 21.9110189,114.119054 22.1638594,120.687167" id="路径-20-copy" stroke="#13161A" stroke-width="1" fill="none"></path>
                            <path d="M207.181077,156.251861 C214.787025,152.38338 222.392974,148.514898 229.998922,144.646417" id="路径-21-copy" stroke="#13161A" stroke-width="1" fill="none"></path>
                            <path d="M155.2668,142.366046 C161.762785,142.508336 168.25877,142.650626 174.754754,142.792916" id="路径-22-copy" stroke="#13161A" stroke-width="1" fill="none" transform="translate(165.010777, 142.579481) rotate(-1.000000) translate(-165.010777, -142.579481) "></path>
                            <path d="" id="路径-24-copy" stroke="#979797" stroke-width="1" fill="none"></path>
                            <path d="M131.225157,203.115769 C131.8375,209.099132 132.449843,215.082496 133.062186,221.065859" id="路径-26" stroke="#13161A" stroke-width="1" fill="none"></path>
                            <path d="M88.4711947,183.017992 C75.4590355,204.965471 71.6202273,200.371895 94.7347223,199.872678" id="路径-27" stroke="#13161A" stroke-width="1" fill="none"></path>
                            <path d="M163.000719,156.171889 C169.399099,169.149718 175.797478,182.127547 182.195858,195.105377" id="路径-28" stroke="#13161A" stroke-width="1" fill="none"></path>
                            <polygon id="矩形" stroke="none" fill-opacity="0.1" fill="#000000" fill-rule="evenodd" transform="translate(122.626244, 245.426117) rotate(13.000000) translate(-122.626244, -245.426117) " points="120.401602 202.516432 124.850886 212.753218 124.523975 288.335802"></polygon>
                        </g>
                    </g>
                </g>
                <rect id="矩形" fill="#0092FF" x="1" y="1" width="249" height="19"></rect>
                <circle id="椭圆形" fill="#FFC82C" cx="23" cy="9" r="3"></circle>
                <circle id="椭圆形-copy-9" fill="#13CE66" cx="35" cy="9" r="3"></circle>
                <circle id="椭圆形-copy-10" fill="#FF3B30" cx="12" cy="9" r="3"></circle>
            </g>
            <g id="分组-11" transform="translate(281.000000, 0.000000)">
                <mask id="mask-18" fill="white">
                    <use xlink:href="#path-17"></use>
                </mask>
                <rect stroke="#13161A" x="0.5" y="0.5" width="170" height="101"></rect>
                <rect id="矩形" fill="#0092FF" mask="url(#mask-18)" x="3" y="1" width="167" height="13"></rect>
                <circle id="椭圆形" fill="#FFC82C" mask="url(#mask-18)" cx="16" cy="7" r="2"></circle>
                <circle id="椭圆形-copy-9" fill="#13CE66" mask="url(#mask-18)" cx="23" cy="7" r="2"></circle>
                <circle id="椭圆形-copy-10" fill="#FF3B30" mask="url(#mask-18)" cx="8" cy="7" r="2"></circle>
                <path d="M9,85 C14.3752258,74.1389283 19.0290977,62.3692719 25.1256775,52.4167848 C53.8447257,5.53378369 55.7512582,73.7819225 73.7122936,80.4402768 C84.0408605,84.2691907 101.43791,33.8459161 116.516364,28.4397924 C127.190054,24.6129225 135.071231,46.8501128 144,52.9726226" id="路径-50" stroke="#13CE66" mask="url(#mask-18)"></path>
                <path d="M24,91 C29.3752258,80.1389283 34.0290977,68.3692719 40.1256775,58.4167848 C68.8447257,11.5337837 70.7512582,79.7819225 88.7122936,86.4402768 C99.0408605,90.2691907 116.43791,39.8459161 131.516364,34.4397924 C142.190054,30.6129225 150.071231,52.8501128 159,58.9726226" id="路径-50-copy" stroke="#FFC82C" mask="url(#mask-18)"></path>
            </g>
            <path d="M38,448.0563 C26.0069008,486.722967 36.008626,506.0563 68.0051756,506.0563 C100.001725,506.0563 131.665873,506.0563 162.997618,506.0563 L155.18026,448.0563 L38,448.0563 Z" id="路径-148" fill="#2F2E41"></path>
            <g id="分组" transform="translate(0.000000, 385.000000)">
                <rect id="矩形" fill="#13161A" x="525" y="103" width="173" height="8"></rect>
                <rect id="矩形-copy" fill="#13161A" x="0" y="117" width="173" height="8"></rect>
                <g id="椭圆形" transform="translate(453.000000, 50.000000)">
                    <mask id="mask-20" fill="white">
                        <use xlink:href="#path-19"></use>
                    </mask>
                    <use id="Mask" fill="#0092FF" xlink:href="#path-19"></use>
                    <ellipse fill="#FFC82C" mask="url(#mask-20)" cx="46.4590164" cy="22.8333333" rx="12.4918033" ry="12.4545455"></ellipse>
                </g>
                <g id="椭圆形" transform="translate(489.000000, 0.000000)">
                    <mask id="mask-22" fill="white">
                        <use xlink:href="#path-21"></use>
                    </mask>
                    <use id="Mask" fill="#0092FF" xlink:href="#path-21"></use>
                    <ellipse fill="#FFC82C" mask="url(#mask-22)" cx="33.2873563" cy="76.8777778" rx="14.5632184" ry="14.5444444"></ellipse>
                </g>
                <path d="M516,67 L501.5,146" id="路径-31" stroke="#13161A"></path>
            </g>
            <path d="M561.122237,308.897705 C557.044176,311.81043 553.899561,317.181753 551.688394,325.011674 C549.477227,332.841594 543.247762,372.171037 533,443 L662,432.245312 C653.379914,408.960696 646.562227,387.124872 641.546938,366.737839 C634.024004,336.157289 630.844151,308.897705 615.918772,303.123893 C605.96852,299.274685 593.955854,298.982674 579.880776,302.247859 L561.122237,308.897705 Z" id="路径-4-copy" fill="#FFC82C"></path>
            <path d="M69.3638477,280.432534 L23.517562,290.7137 L11,456.887144 L147.811937,465 L158,314.91217 C128.671895,295.505699 106.258155,282.78782 90.758781,276.758533 C75.2594069,270.729246 68.1277625,271.953913 69.3638477,280.432534 Z" id="路径-123" fill="#0092FF" transform="translate(84.500000, 369.000000) scale(-1, 1) translate(-84.500000, -369.000000) "></path>
            <path d="M574,419 C576,429.333333 578,439.666667 580,450" id="路径-20-copy-4" stroke="#13161A"></path>
            <polygon id="路径-149" stroke="#313B40" stroke-width="2" fill="#FFFFFF" points="173.927576 356.5 508.494824 354 640.46975 538 58 538"></polygon>
            <g id="分组-15" transform="translate(251.000000, 388.000000)">
                <g id="分组-19-copy" transform="translate(30.000000, 32.000000) scale(-1, 1) translate(-30.000000, -32.000000) ">
                    <g id="分组-13" transform="translate(3.750000, 25.941176)">
                        <path d="M13.6940235,8.85322877 C26.989478,12.586664 33.6372053,20.3048583 33.6372053,32.0078115" id="路径-60" stroke="#13161A" stroke-width="2"></path>
                        <ellipse id="椭圆形" fill="#FF3B30" transform="translate(8.821023, 7.095759) rotate(-1.000000) translate(-8.821023, -7.095759) " cx="8.82102273" cy="7.09575923" rx="6.51983496" ry="6.34889003"></ellipse>
                        <ellipse id="椭圆形-copy-8" stroke="#313B40" stroke-width="0.5" transform="translate(7.286932, 7.842681) rotate(-1.000000) translate(-7.286932, -7.842681) " cx="7.28693182" cy="7.84268126" rx="6.51983496" ry="6.34889003"></ellipse>
                    </g>
                    <g id="分组-13-copy" transform="translate(30.048001, 29.086353) rotate(42.000000) translate(-30.048001, -29.086353) translate(5.548001, 12.586353)">
                        <path d="M13.5592019,8.88971185 C23.2722398,6.57730926 34.999214,14.4506179 48.7401243,32.5096376" id="路径-60" stroke="#13161A" stroke-width="2"></path>
                        <ellipse id="椭圆形" fill="#FF3B30" transform="translate(8.734177, 7.125000) rotate(-1.000000) translate(-8.734177, -7.125000) " cx="8.73417722" cy="7.125" rx="6.45567178" ry="6.37502474"></ellipse>
                        <ellipse id="椭圆形-copy-8" stroke="#313B40" stroke-width="0.5" transform="translate(7.215190, 7.875000) rotate(-1.000000) translate(-7.215190, -7.875000) " cx="7.21518987" cy="7.875" rx="6.45567178" ry="6.37502474"></ellipse>
                    </g>
                    <ellipse id="椭圆形" fill="#13CE66" transform="translate(41.443599, 50.663817) rotate(18.000000) translate(-41.443599, -50.663817) " cx="41.4435988" cy="50.6638167" rx="3.41387016" ry="10.5126996"></ellipse>
                    <ellipse id="椭圆形-copy-9" fill="#13CE66" transform="translate(31.786504, 53.916928) rotate(-48.000000) translate(-31.786504, -53.916928) " cx="31.7865041" cy="53.9169281" rx="3.39469414" ry="9.81818268"></ellipse>
                </g>
                <g id="分组-9-copy" transform="translate(13.000000, 53.000000)">
                    <g id="路径-2" transform="translate(0.275862, 0.272727)">
                        <mask id="mask-24" fill="white">
                            <use xlink:href="#path-23"></use>
                        </mask>
                        <use id="Mask" fill="#7C868D" xlink:href="#path-23"></use>
                        <polygon fill="#4D5761" mask="url(#mask-24)" points="17.3146282 -1.3621869 17.3146282 20.4328036 25.5795286 6.81093452 24.2020452 0.107179923"></polygon>
                    </g>
                </g>
            </g>
            <g id="分组-12" transform="translate(84.500000, 244.500000) scale(-1, 1) translate(-84.500000, -244.500000) translate(38.000000, 192.000000)">
                <path d="M53.7647788,93.927936 C52.9090602,99.2318238 48.2871021,103.283724 42.7137313,103.283724 C37.1403605,103.283724 32.5184024,99.2318238 31.6626838,93.927936 C31.5711119,93.6986572 31.5207488,93.4484611 31.5207488,93.1865021 L31.5207488,74.919141 C31.5207488,73.8145715 32.4161793,72.919141 33.5207488,72.919141 L51.9067137,72.919141 C53.0112832,72.919141 53.9067137,73.8145715 53.9067137,74.919141 L53.9067137,93.1865021 C53.9067137,93.4484611 53.8563506,93.6986572 53.7647788,93.927936 Z" id="合并形状-copy" fill="#FFC1C7" transform="translate(42.713731, 88.101433) rotate(10.000000) translate(-42.713731, -88.101433) "></path>
                <path d="M30.5263158,97.7546382 C42.1090448,102.551986 50.1750671,107.039512 52.9122807,92.2283627" id="路径-11-copy-2" stroke="#13161A"></path>
                <g id="分组-5-copy-2" transform="translate(46.344415, 46.120303) rotate(10.000000) translate(-46.344415, -46.120303) translate(6.344415, 6.620303)" fill-rule="nonzero">
                    <ellipse id="椭圆形" fill="#4D5761" cx="41.0372513" cy="38.476534" rx="38.6666667" ry="38.4618056"></ellipse>
                    <ellipse id="椭圆形" fill="#FFC1C7" cx="36.6519298" cy="42.0282639" rx="36.6519298" ry="36.4577431"></ellipse>
                    <path d="M64.3352597,63.4794091 C48.9623085,78.7709123 24.2248997,79.3545782 8.14035088,64.8052978 C18.2391126,75.8517129 33.6280555,80.4767166 48.1865811,76.8408201 C58.9462759,74.1536567 67.9629617,67.2762747 73.4114969,58.0241456 C75.3351633,54.7575778 76.8140518,51.1949925 77.7678383,47.4162884 C81.4231009,32.9348957 76.7734627,17.6274855 65.6682105,7.58222834 C80.2949856,23.5815591 79.7082109,48.1879058 64.3352597,63.4794091 Z" id="路径" fill="#000000" opacity="0.1"></path>
                </g>
                <path d="M39.8877193,16.062996 C33.7824561,22.1359127 36.6315789,29.0763889 34.5964912,29.0763889 C32.5614035,29.0763889 52.7914641,33.1114973 47.1511888,50.0087473 C46.2502421,52.7078213 46.3809359,55.8518963 47.5432702,59.4409722 L50.877193,59.4409722 C50.877193,48.6446759 52.9122807,43.2465278 56.9824561,43.2465278 C63.0877193,43.2465278 62.8049167,49.3194444 61.0526316,59.4409722 C60.7693553,61.0772294 60.3553251,62.8003236 59.810541,64.610255 C58.6759905,68.3795624 61.7138006,72.6443407 68.9239713,77.40459 C79.6841108,70.826993 86.9644245,58.4770172 90.7649123,40.3546627 C98.4825541,3.55363918 45.9929825,9.99007937 39.8877193,16.062996 Z" id="路径-122" fill="#4D5761"></path>
            </g>
            <path d="M437,281.648308 C419.804376,270.992023 410.822188,270.183596 410.053437,279.223027 C409.284686,288.262458 416.810433,296.521449 432.63068,304 L437,281.648308 Z" id="路径-12-copy-7" fill="#FFC1C7"></path>
            <path d="M429.620503,275 C429.873501,285.333333 430.126499,295.666667 430.379497,306" id="路径-20-copy-5" stroke="#13161A"></path>
            <polygon id="路径-37" fill="#FFC82C" points="557.333984 340.918036 564 309.597809 496.691403 323.988184 431 275 431 355.60832 503.963596 362"></polygon>
            <path d="M618.995592,304 C632.653052,314.129953 642.103238,326.693131 647.346149,341.689533 C652.58906,356.685936 659.140343,383.789425 667,423 L585.75662,473 L574,418 L625.109179,400.933422 C615.56816,355.722055 610.905691,328.28665 611.121772,318.627208 C611.337853,308.967765 613.96246,304.09203 618.995592,304 Z" id="路径-38" fill="#FFC82C"></path>
            <polyline id="路径-47" stroke="#13161A" points="625.159613 351 629.474926 402 587 415"></polyline>
            <path d="M252.118651,385.317512 C247.75485,378.717683 221.954335,367.202851 221.953412,349.191352 C221.952798,337.183686 234.043948,340.762482 258.226863,359.927739 C257.063922,381.254141 255.027851,389.717399 252.118651,385.317512 Z" id="路径-65-copy-2" fill="#FFC1C7" transform="translate(240.090138, 364.349833) scale(-1, 1) rotate(-32.000000) translate(-240.090138, -364.349833) "></path>
            <g id="分组-6" transform="translate(555.000000, 186.000000)">
                <path d="M44.5065752,118.190579 C44.0310679,122.830391 40.1173613,126.449639 35.3597592,126.449639 C30.6021572,126.449639 26.6884506,122.830391 26.2129432,118.190579 C26.1811975,118.049084 26.1644467,117.90192 26.1644467,117.750844 L26.1644467,103.329157 C26.1644467,102.224588 27.0598772,101.329157 28.1644467,101.329157 L42.5550717,101.329157 C43.6596412,101.329157 44.5550717,102.224588 44.5550717,103.329157 L44.5550717,117.750844 C44.5550717,117.90192 44.5383209,118.049084 44.5065752,118.190579 Z" id="合并形状-copy-6" fill="#FFC1C7" transform="translate(35.359759, 113.889398) rotate(10.000000) translate(-35.359759, -113.889398) "></path>
                <path d="M26.0097087,122.784652 C35.6847792,126.717934 42.4223393,130.397197 44.7087379,118.253731" id="路径-11-copy-3" stroke="#13161A"></path>
                <g id="分组-5-copy-3" transform="translate(40.254391, 77.747594) rotate(10.000000) translate(-40.254391, -77.747594) translate(5.754391, 43.747594)" fill-rule="nonzero">
                    <ellipse id="椭圆形" fill="#2F2E41" cx="35.3484531" cy="33.5123976" rx="33.4558906" ry="33.5123976"></ellipse>
                    <ellipse id="椭圆形" fill="#FFC1C7" cx="30.1104687" cy="37.8146988" rx="30.1104687" ry="30.1613253"></ellipse>
                    <path d="M52.8530103,55.5611338 C40.2237499,68.211725 19.9013555,68.6945892 6.6875,56.6580355 C14.983883,65.7966846 27.626281,69.6229292 39.5864707,66.6149685 C48.4258266,64.3918904 55.8332575,58.7022635 60.3093642,51.0480191 C61.8897038,48.3456024 63.1046474,45.3982918 63.8882066,42.272187 C66.8910954,30.2917966 63.0713024,17.6280456 53.9480625,9.31764998 C65.9643207,22.5538236 65.4822707,42.9105426 52.8530103,55.5611338 Z" id="路径" fill="#000000" opacity="0.1"></path>
                </g>
                <g id="分组-4-copy-4" transform="translate(44.062719, 71.740149) rotate(10.000000) translate(-44.062719, -71.740149) translate(18.062719, 44.240149)" fill="#2F2E41" fill-rule="nonzero">
                    <path d="M17.1765258,44.254823 C17.6479012,43.5900821 18.1028171,42.8392803 18.5177029,42.0236458 C20.335322,38.4503422 20.6963381,34.9858256 19.3240547,34.2854314 C17.9517714,33.5850371 15.3658445,35.9139903 13.5482254,39.4872939 C13.5202306,39.5423295 13.4925814,39.5973393 13.4652787,39.6523136 C4.10132554,34.8397697 -1.10346654,23.1703456 0.197539528,14.2433932 C1.54115161,5.02409639 16.4918988,3.0421757 23.40625,0.692068236 C30.3206012,-1.65803923 33.0318464,7.22489239 42.9787966,11.7228916 C52.9257467,16.2208907 51.5523853,36.179909 49.8215433,43.1231928 C48.0907013,50.0664766 45.0099016,53.9461522 40.2149641,54.3209042 C36.1444981,54.6390346 23.6164298,51.3510985 17.1765258,44.254823 Z" id="合并形状"></path>
                </g>
                <path d="" id="路径-24-copy-3" stroke="#979797"></path>
                <path d="M68.9453432,35.8038137 C90.7056678,18.4521014 112.446184,14.1056999 134.166893,22.764609 C166.747956,35.7529727 185.992069,49.5280532 195.895009,74.6388908 C205.79795,99.7497285 185.273496,130.198534 156.801713,116.519189 C128.329929,102.839843 142.81151,71.4282985 117.144356,64.7440449 C100.032921,60.2878759 85.6380269,52.0468777 73.9596755,40.0210502 L68.9453432,35.8038137 Z" id="路径-25-copy-3" fill="#2D2C3E" transform="translate(133.682227, 69.176900) rotate(-19.000000) translate(-133.682227, -69.176900) "></path>
            </g>
            <polygon id="路径-124" fill="#0092FF" transform="translate(187.500000, 350.500000) scale(-1, 1) translate(-187.500000, -350.500000) " points="229.770492 296 208 364.5 140 345 131 400 208 405 235.868852 405 244 370.364944"></polygon>
            <polyline id="路径-128" stroke="#13161A" transform="translate(144.000000, 356.000000) scale(-1, 1) translate(-144.000000, -356.000000) " points="131 405 153.043596 405 157 307"></polyline>
            <path d="M134.350141,434.376298 C129.986341,427.776468 104.185825,416.261636 104.184903,398.250137 C104.184288,386.242472 116.275439,389.821267 140.458354,408.986524 C139.295413,430.312926 137.259342,438.776184 134.350141,434.376298 Z" id="路径-65-copy" fill="#FFC1C7" transform="translate(122.321628, 413.408619) scale(-1, 1) rotate(-32.000000) translate(-122.321628, -413.408619) "></path>
            <polygon id="路径-126" fill="#0092FF" transform="translate(64.500000, 395.500000) scale(-1, 1) translate(-64.500000, -395.500000) " points="87.2458847 321 60.0021747 395.837787 9.3648016 395.837787 6 470 123 420.109502 116.9124 321"></polygon>
            <path d="M118.189968,430 L120.980256,394" id="路径-67-copy" stroke="#13161A" transform="translate(119.500000, 412.000000) scale(-1, 1) translate(-119.500000, -412.000000) "></path>
            <path d="M235.268509,380.558785 L240.980256,345" id="路径-67-copy-2" stroke="#13161A" transform="translate(238.000000, 363.000000) scale(-1, 1) translate(-238.000000, -363.000000) "></path>
            <polyline id="路径-127" stroke="#13161A" transform="translate(76.000000, 364.500000) scale(-1, 1) translate(-76.000000, -364.500000) " points="42 400 110 394.093088 110 329"></polyline>
            <path d="M20,460 C21.031365,457.254902 46.3646983,445.588235 96,425" id="路径-9" stroke="#13161A" transform="translate(58.000000, 442.500000) scale(-1, 1) translate(-58.000000, -442.500000) "></path>
            <path d="M45.701014,216.640411 C37.0455376,203.98549 36.7750539,194.224524 44.8895631,187.357512 C53.0040723,180.490501 56.3851178,178.430397 55.0326996,181.177202 L53.0040723,185.297409 L61.1185815,181.177202 L57.0613269,187.357512 C69.2330906,185.57716 78.700018,185.57716 85.462109,187.357512 C95.6052454,190.02804 111.959557,194.420724 118.731597,206.781344 C123.246289,215.021758 124.179587,225.427977 121.53149,238 C111.921728,235.630394 102.789109,230.717784 94.1336326,223.262172 C81.1504179,212.078753 84.2449326,208.841448 68.0159143,208.841448 C57.1965687,208.841448 49.7582686,211.441102 45.701014,216.640411 Z" id="路径-123-copy-4" fill="#2F2E41" transform="translate(81.000000, 209.000000) scale(-1, 1) translate(-81.000000, -209.000000) "></path>
            <path d="M569.764111,416.474518 C547.891046,418.090655 539.306745,423.049439 544.011208,431.35087 C548.715672,439.652301 561.746471,442.396748 583.103604,439.584211 L569.764111,416.474518 Z" id="路径-12-copy-5" fill="#FFC1C7" transform="translate(562.932857, 428.563177) rotate(17.000000) translate(-562.932857, -428.563177) "></path>
            <g id="分组-2" transform="translate(139.000000, 341.000000)">
                <path d="M97,115 L105,115 L109,111 L118,68 C116,66.6666667 114.333333,67 113,69 C111.666667,71 109,74.6666667 105,80 L97,115 Z" id="路径-152" stroke="#313B40" fill="#FFFFFF"></path>
                <polygon id="路径-150" stroke="#313B40" fill="#FFFFFF" stroke-linecap="round" points="0 114 102 114 113 69 30 69"></polygon>
                <path d="M4,119 L1.42108547e-14,114 L102,114 C104,114 105.333333,113.333333 106,112 C106.666667,110.666667 116.333333,73.3333333 135,0 L138,3 L109,115 L104,119 L4,119 Z" id="路径-151" stroke="#000000" fill="#000000" stroke-linecap="round"></path>
                <polygon id="路径-153" stroke="#313B40" points="39 109 93 109 103 73 56.5 73"></polygon>
                <path d="M66,73 L51,109" id="路径-154" stroke="#313B40"></path>
            </g>
            <g id="分组-2-copy" transform="translate(486.000000, 395.500000) scale(-1, 1) translate(-486.000000, -395.500000) translate(417.000000, 336.000000)">
                <path d="M97,115 L105,115 L109,111 L118,68 C116,66.6666667 114.333333,67 113,69 C111.666667,71 109,74.6666667 105,80 L97,115 Z" id="路径-152" stroke="#313B40" fill="#FFFFFF"></path>
                <polygon id="路径-150" stroke="#313B40" fill="#FFFFFF" stroke-linecap="round" points="0 114 102 114 113 69 30 69"></polygon>
                <path d="M4,119 L1.42108547e-14,114 L102,114 C104,114 105.333333,113.333333 106,112 C106.666667,110.666667 116.333333,73.3333333 135,0 L138,3 L109,115 L104,119 L4,119 Z" id="路径-151" stroke="#000000" fill="#000000" stroke-linecap="round"></path>
                <polygon id="路径-153" stroke="#313B40" points="39 109 93 109 103 73 56.5 73"></polygon>
                <path d="M66,73 L51,109" id="路径-154" stroke="#313B40"></path>
            </g>
        </g>
    </g>
</svg>