<svg viewBox="0 0 1731.33 1072.54" xmlns="http://www.w3.org/2000/svg"><defs><style>.cls-1{fill:#edf3ff;}.cls-13,.cls-18,.cls-2,.cls-20,.cls-25,.cls-4{fill:none;}.cls-19,.cls-2,.cls-25,.cls-4{stroke:#016efc;}.cls-18,.cls-19,.cls-2,.cls-4{stroke-miterlimit:10;}.cls-13,.cls-18,.cls-19,.cls-2,.cls-25,.cls-4{stroke-width:1.68px;}.cls-2{opacity:0.25;isolation:isolate;}.cls-3{fill:#c6ddff;}.cls-5{fill:#8dbffc;}.cls-6{fill:#013bff;}.cls-19,.cls-7{fill:#fff;}.cls-8{fill:#007bff;}.cls-9{fill:#5b2f2e;}.cls-10{fill:#2b0d0d;}.cls-11{fill:#fac897;}.cls-12{fill:#f29d59;}.cls-13{stroke:#035c8e;}.cls-13,.cls-25{stroke-linecap:round;stroke-linejoin:round;}.cls-14{fill:#c7ddff;}.cls-15{fill:#dcecff;}.cls-16{fill:#5d9fff;}.cls-17{fill:#69a5ff;}.cls-18{stroke:#fff;}.cls-21{fill:#ff5925;}.cls-22{fill:#f37621;}.cls-23{fill:#077a4b;}.cls-24{fill:#12a072;}.cls-26{fill:#fcbc29;}.cls-27{fill:#ccd5dd;}</style></defs><g id="图层_2"><g id="图层_1-2"><path d="M1703.25,912.75S1668,560.62,1335.1,498.58c-118.76-22.15-227.47-81.05-308.93-169.55C1015,317,1003.81,304.14,992.69,290.5,879.44,152,689.8,99.11,521.56,162.2c-54.13,20.27-107.42,51.24-154.78,97.54-61,59.73-100.65,137.63-114.63,221.52C238.59,563,204.48,700.57,125.65,737.11a120.62,120.62,0,0,0-22.24,13C74.7,771.54,16.11,827.29,35.6,914.43Z" class="cls-1"></path><path d="M757.5,302.67h111" class="cls-2"></path><path d="M682.07,330.39H903.49" class="cls-2"></path><path d="M708.34,358h153.4" class="cls-2"></path><path d="M662.57,388.24H877.64" class="cls-2"></path><path d="M773.28,334.69v18.9" class="cls-2"></path><path d="M773.28,279.79v18.89" class="cls-2"></path><path d="M808.24,307.08V326" class="cls-2"></path><path d="M1362.22,687.34h110.92" class="cls-2"></path><path d="M1319.85,742.57h110.91" class="cls-2"></path><path d="M1286.78,715h221.43" class="cls-2"></path><path d="M1378,719.26v18.9" class="cls-2"></path><path d="M1378,664.35v18.9" class="cls-2"></path><path d="M1413,691.65v18.9" class="cls-2"></path><path d="M808.24,363.46v18.79" class="cls-2"></path><path d="M734.29,363.46v18.79" class="cls-2"></path><path d="M794.05,854.48h221.42" class="cls-2"></path><path d="M820.32,882.2H973.73" class="cls-2"></path><path d="M885.26,858.89v18.79" class="cls-2"></path><path d="M920.23,831.28v18.79" class="cls-2"></path><path d="M920.23,887.55v18.79" class="cls-2"></path><path d="M846.28,887.55v18.79" class="cls-2"></path><path d="M119,914.57s-408.64,37.21,288.55,92.77c0,0,58.28,3.77-21.91,20.12-78.07,15.83,41.1,23,49,23.38,217.25,10.16,1032.51,44.65,1140.78-2.52,0,0,70.8-23.06-67.17-31.13-92.51-5.35-5.65-9.23,0-9.64,105.65-8.6,286.94-32.81,200.39-94.44Z" class="cls-3"></path><path d="M12.37,913.11H1719" class="cls-4"></path><path d="M1015.15,979.94c103,0,186.46-6.25,186.46-14s-83.49-14-186.46-14-186.46,6.25-186.46,14S912.17,979.94,1015.15,979.94Z" class="cls-5"></path><path d="M1528.24,236.11c12.7-42.2-10.49-87.35-52.35-101.94a83.53,83.53,0,0,0-57.41.74h-.12a90,90,0,0,0-17,8.71c-26,10.29-52.65,8.29-69.39,5.25-.11,0-.31-.11-.43-.11a122.55,122.55,0,0,0-16.74-4.09c-61.86-10.92-123.84,24.88-143.55,85.77-21.51,66.46,15.37,137.54,82.32,158.85,52.55,16.69,118.66,7.24,153.51-31.08a84,84,0,0,0,16.53-28.55c10.91-31.5,30.72-34.44,30.72-34.44C1492,289.34,1518,270.23,1528.24,236.11Z" class="cls-1"></path><path d="M1323,184.36h97.36" class="cls-2"></path><path d="M1349.82,242.2h97.47" class="cls-2"></path><path d="M1358.72,214.59h124.69" class="cls-2"></path><path d="M1417.83,218.9v18.89" class="cls-2"></path><path d="M1380.54,191.29v18.89" class="cls-2"></path><path d="M1456.61,191.29v18.89" class="cls-2"></path><path d="M964.19,943.82C990,938.68,991,916.63,991,916.63h27.55c-.85,2.1-1.06,5.46-1.06,8.93a34.51,34.51,0,0,0,6.89,19.21,18.42,18.42,0,0,1,3.28,9.24H943C948.83,945.71,964.19,943.82,964.19,943.82Z" class="cls-6"></path><path d="M1027.54,954a21.17,21.17,0,0,1-1,8.71H940.88A11.94,11.94,0,0,1,943,954Z" class="cls-7"></path><path d="M1028.07,602.72V922.3h-21.71L984.64,602.72Z" class="cls-6"></path><path d="M979,602.72h5.62l32.1,319.58H977.65L949.36,641.57l-3.92-38.85Z" class="cls-8"></path><path d="M1023.94,957.68c25.85-5.14,26.81-27.19,26.81-27.19h27.54c-.85,2.1-1.06,5.46-1.06,8.92a34.54,34.54,0,0,0,6.89,19.22,18.5,18.5,0,0,1,3.28,9.45h-84.75C1008.26,959.57,1023.94,957.68,1023.94,957.68Z" class="cls-6"></path><path d="M1087.3,968.18a23.12,23.12,0,0,1-1.06,8.5h-85.6a11.88,11.88,0,0,1,1.9-8.5Z" class="cls-7"></path><path d="M1082.85,602.72l.42,46.41,2,285.46h-50.43L1007.63,654l-5-51.24Z" class="cls-8"></path><path d="M967.9,232.33a28.26,28.26,0,0,1,5-11.75c5.3-7,16.1-16.49,33.37-8.61a40.5,40.5,0,0,1,11.65,8.08c4,3.88,12,10.71,20.87,13a27.28,27.28,0,0,1,8,3.67c12.82,8.19,56.79,38,31.36,97.54-7.2,16.69-21.82,21.83-34,22.57-2.75.1-5.3-3.47-8-4.2-4.87-17.64,2.65-25.62-.42-41.26-6.89-29.19-27.76-40.11-51.17-55.22a24.74,24.74,0,0,0-.53-8.51s-7.1-2.62-11.66,12.71C972.14,260.37,964.09,254.49,967.9,232.33Z" class="cls-9"></path><path d="M973.83,288.08a135,135,0,0,0,7.74-18.9c12.6,3.05,14.72,24.15,12.18,34.54-3.5,14.6,4.13,29.61-13.88,47.35a27.55,27.55,0,0,1-8.37-4.72C961.75,337.84,956.25,321.26,973.83,288.08Z" class="cls-9"></path><path d="M985.91,301.94c2.65-10.39,2.22-23.1-4.45-32.86a65,65,0,0,0,2.86-13c23.41,15.12,56.89,23.62,63.78,52.81,3,15.64-2.33,31.18-12.19,43.57-5-1.47-10-4.62-14-10.92a124.81,124.81,0,0,0-19,7.45,29.17,29.17,0,0,1-23.1,1.79C976.8,335.85,982.41,316.53,985.91,301.94Z" class="cls-10"></path><path d="M1050.64,359.16s-23.2-3.47-23.41-34.75c-10.92-20.79-31-10.19-34.54,10.39a86.58,86.58,0,0,1-1.8,31.6s5,44.09,25.11,52.6C1016.1,419,1058.37,384,1050.64,359.16Z" class="cls-11"></path><path d="M1027.33,326.09a110.79,110.79,0,0,1,1.38-16.7,81.7,81.7,0,0,0-39.2,12.39,56.68,56.68,0,0,1,3.18,13C1003.5,356.53,1015.15,329,1027.33,326.09Z" class="cls-12"></path><path d="M972.14,253.86s-3.61,63.41,25.53,74.64a10.71,10.71,0,0,0,6,.42c6.46-1.26,21.19-6.51,28.5-27.5,0,0,8.47-2.31,11.76-7.88,2.86-5-.75-11.55-6.57-11.13a12.33,12.33,0,0,0-4.24,1.16,43.78,43.78,0,0,0-.85-9.87,11.22,11.22,0,0,0-7.73-8.19c-8.37-2.52-28.18-9.34-34.22-19.84-3-5.36-7.63-5.57-10.17-5C976.48,241.68,973.62,244.2,972.14,253.86Z" class="cls-11"></path><path d="M979.34,274.54s7.42-3.26,10.28,2.73l1.9,24.56,8.16-.63" class="cls-13"></path><path d="M1000.74,312.23s8.9-1.26,11.13-8.51" class="cls-13"></path><path d="M992.8,354.54s6,48.08,42-5.67c0,0,62.29,13.65,65.48,86.3h-42.92l-2,195.8S988,642.2,964,624.35l4.66-192.44s-26.06,2.63-38.67-7.24C930,424.56,955.61,353.28,992.8,354.54Z" class="cls-8"></path><path d="M893.42,472.75c7.42-14.91,41.85-67.08,43.86-73,3.92-11.55,16.32-44.41,55.62-45.25l5.19,46.09a178.73,178.73,0,0,1,1.59,23.83l.43,314.54s-55.73-7.14-81.58-45c0,0,37.5-135.85,33-201.47,0,0-11.87,30.13-28.39,39.47C895.33,547.61,861.11,537.84,893.42,472.75Z" class="cls-7"></path><path d="M1104.78,417c-12.72-35.8-37.72-57-71.83-64.56l1.8-3.57c21.93,3.57,49.58,21,61.34,32.75,10.59,10.71,18.32,28.14,21.62,44.52,7.41,37.58.94,63.83-3.08,87.24C1113.89,472.75,1115.68,447.66,1104.78,417Z" class="cls-14"></path><path d="M1016.31,389.08c6.68-16,13.57-30.24,16.64-36.64,34.11,7.56,64.2,31.49,74.27,64.56,8.36,27.62,12.39,77.17,4.65,107.51-7.2,23.2-17.37,47.56-17.37,47.56l22.25,127.24C1080.83,729.55,1009.22,739,1009.22,739l-1.7-305.3A113.42,113.42,0,0,1,1016.31,389.08Z" class="cls-7"></path><path d="M1031.15,399.89l19.49-18.69-24.37,12.08Z" class="cls-15"></path><path d="M988.45,363l-12.29,19.84L992,393.7l-7.31,10.18L996.5,465" class="cls-4"></path><path d="M943.85,611.65l-7.73,39s12.82,16.9,40.47,13.44l.84-28.46" class="cls-4"></path><path d="M992.9,354.54S965.78,369.13,964.4,427l-3.18.21s-3.17-54.49,32.11-77.59Z" class="cls-16"></path><path d="M1064.52,455.22c6.36-36.33,3.39-95.33-33.9-113.07l2.86,5.25s39.83,23.52,27.33,106.56a2.19,2.19,0,0,1-1.38,1.78c-12.39,4.94-19.91,24.68-24.15,43.89a2.09,2.09,0,0,0,1.48,2.41l3.29.84a1.93,1.93,0,0,0,2.33-1.36,2,2,0,0,0-1.27-2.52l-1.91-.63c2.33-9.56,8.58-31.71,18-37.27a3.86,3.86,0,0,1,5.4,1.36c1.49,2.63,2.12,7.14,1.38,15a98.76,98.76,0,0,1-2.75,14.8l-2.76,10.5-1.59-.42a2,2,0,0,0-2.44,1.47l-.21.63a2.06,2.06,0,0,0,1.27,2.41l3.29,1.05a2,2,0,0,0,2.54-1.36c2.33-7.67,10.28-36,4.77-47.25C1065.9,458.68,1064.31,456.06,1064.52,455.22Z" class="cls-16"></path><path d="M963.66,438.63a8.3,8.3,0,1,0-8.37-8.29A8.33,8.33,0,0,0,963.66,438.63Z" class="cls-16"></path><path d="M963.66,434.43a4.1,4.1,0,1,0-4.13-4.09A4.11,4.11,0,0,0,963.66,434.43Z" class="cls-7"></path><path d="M1036.44,356.53l14.2,24.67-24.37,12.08,8,10.6S1015,437.69,1013,465" class="cls-4"></path><path d="M1064.2,733.43c.64,21.42,1.38,42.73,2,64.15q1.59,51.18,3.29,102.46c.21,7.88.53,15.75.74,23.73a.69.69,0,0,0,1.38,0c-.64-21.42-1.38-42.73-2-64.15q-1.6-51.18-3.29-102.46c-.21-7.88-.53-15.75-.74-23.73A.69.69,0,0,0,1064.2,733.43Z" class="cls-7"></path><path d="M907.94,393.07,990,403.36a6.94,6.94,0,0,1,6,5.67l23.73,124a7,7,0,0,1-8,8.19l-82.21-13.12a7,7,0,0,1-5.83-5.57L900.1,401.36A7,7,0,0,1,907.94,393.07Z" class="cls-14"></path><path d="M914.19,402l72.25,9.13a6.06,6.06,0,0,1,5.3,4.94l20.87,109.08a6.2,6.2,0,0,1-7.1,7.24l-72.25-11.54a6.18,6.18,0,0,1-5.09-4.94L907.3,409.24A6.14,6.14,0,0,1,914.19,402Z" class="cls-7"></path><path d="M1033.69,500.15l-7.2,16.91s-28.61-6.3-41.64-21.74a20.87,20.87,0,0,1-5.19-14.69c.21-4.41,1.91-9.14,8.26-8.82a12.66,12.66,0,0,1,7.63,3.15c3.92,3.25,11.55,9.45,15.47,10.6l-4-12.28a2.2,2.2,0,0,1,3.39-2.42C1014.2,473.8,1021.08,481.36,1033.69,500.15Z" class="cls-11"></path><path d="M903.7,444.09a3.11,3.11,0,0,1,4-2.73c2.55.74,5.51,2.21,5.51,5.15a8.67,8.67,0,0,0,2.33,5,11.84,11.84,0,0,1,3,6.72c.74,5.88.85,14.7-4.56,14.49,0,0-7,1.05-10-6.93C904.12,465.72,902.21,458.26,903.7,444.09Z" class="cls-11"></path><path d="M954.34,482.62a15.12,15.12,0,1,0-15.26-15.12A15.19,15.19,0,0,0,954.34,482.62Z" class="cls-3"></path><path d="M914.93,414.27a4.62,4.62,0,1,0-4.66-4.61A4.63,4.63,0,0,0,914.93,414.27Z" class="cls-17"></path><path d="M1034.75,666.77c44.81,16.48,82,32.54,82,32.54L1096.3,582.46l-1.8-10.39,16.74-45.56s-27,38-80.73-5.67l-4.13-3.89,1.59,1.79-2.12-1.79,3.92,3.78,55.94,61.52L1060,610.7l17.59-8.82,4.56,50C1058.9,669.92,1034.75,666.77,1034.75,666.77Z" class="cls-14"></path><path d="M191.13,837.16H272" class="cls-18"></path><path d="M191.13,901.09H272" class="cls-18"></path><path d="M1486.71,837.16h80.83" class="cls-18"></path><path d="M1486.71,901.09h80.83" class="cls-18"></path><path d="M314.87,613.22H661" class="cls-2"></path><path d="M239.44,640.94H460.86" class="cls-2"></path><path d="M265.71,668.55H419.12" class="cls-2"></path><path d="M219.94,698.79H485.12" class="cls-2"></path><path d="M330.65,645.24v18.9" class="cls-2"></path><path d="M330.65,707.92v18.9" class="cls-2"></path><path d="M330.65,590.34v18.89" class="cls-2"></path><path d="M402.8,645.24v18.9" class="cls-2"></path><path d="M365.62,617.63v18.9" class="cls-2"></path><path d="M365.62,674V692.8" class="cls-2"></path><path d="M291.67,674V692.8" class="cls-2"></path><path d="M1132.11,226.87H1061V191a17.09,17.09,0,0,1,17.17-17H1132a17.08,17.08,0,0,1,17.15,17v18.9A17,17,0,0,1,1132.11,226.87Z" class="cls-19"></path><path d="M1127.77,194.85h-47.89" class="cls-4"></path><path d="M1127.77,206.61h-47.89" class="cls-4"></path><path d="M462.34,388.24h71.09V352.33a17.09,17.09,0,0,0-17.16-17H462.45a17.09,17.09,0,0,0-17.17,17v18.9A16.87,16.87,0,0,0,462.34,388.24Z" class="cls-19"></path><path d="M466.68,356.22h47.78" class="cls-4"></path><path d="M466.68,368h47.78" class="cls-4"></path><path d="M606.32,424.67c-19.39,3.88-21.83,16.06-21.4,23.83l1,.32c10.28,36.64,16.63,37.05,29.35,33.91,3.28-.53,3.81-8.93,7.2-18.8a46.07,46.07,0,0,1,4-11.23C623.16,423,606.32,424.67,606.32,424.67Z" class="cls-12"></path><path d="M585.87,448.71l-1-.32a22.19,22.19,0,0,0,1.27,6.51c5.29,11.34,0,33.71,0,33.71,1.37,15.22,10.17,16.48,10.17,16.48,23.73,3.78,30.09-19.63,30.09-19.63-5.62-6.51-5.41-14.91-4-21.63a22,22,0,0,1-9,3.78C600.7,470.76,595.4,456.06,585.87,448.71Z" class="cls-11"></path><rect height="173.35" width="175.19" y="115.57" x="713.4" class="cls-20"></rect><path d="M475.27,807.55H447.4V926.29h27.87Z" class="cls-17"></path><path d="M475.27,917.89H447.4v58.69h27.87Z" class="cls-5"></path><path d="M627,807.55H599.11V927.34H627Z" class="cls-17"></path><path d="M627,918.94H599.11v57.64H627Z" class="cls-5"></path><path d="M1173.85,903.19H1146v73.39h27.86Z" class="cls-5"></path><path d="M1173.85,807.55H1146V918.94h27.86Z" class="cls-17"></path><path d="M1344.85,807.55H1317V941h27.87Z" class="cls-17"></path><path d="M1344.85,918.94H1317v57.64h27.87Z" class="cls-5"></path><path d="M801.36,0h-6.15V142.47h6.15Z" class="cls-21"></path><path d="M801.36,220.68a26.56,26.56,0,1,0-26.81-26.56A26.68,26.68,0,0,0,801.36,220.68Z" class="cls-7"></path><path d="M736.63,197.16h130a10.42,10.42,0,0,0,10.38-12c-2.33-14.49-10.28-38.74-36.55-53.44a79.19,79.19,0,0,0-73.84-1.58c-17.48,8.72-35.81,25-40.26,55.12A10.26,10.26,0,0,0,736.63,197.16Z" class="cls-17"></path><path d="M637.57,374.7s-26.17,31-39.3,39.89c0,0,8.05,13.33.31,22.47a33.29,33.29,0,0,1,.11,11.33c-1.27,7.35-9.85,10.71-16.1,6.62-10.81-7.24-30.62-23.83-30.83-48.08a20.27,20.27,0,0,1,1.16-6.62c1.7-4.72,5-14.59,4.13-20.47,0,0-1.16-31.92,57.74-25.62,0,0,11.34.21,18.54-3,5-2.21,11-.21,13,4.83C648.16,360.21,647.1,366.4,637.57,374.7Z" class="cls-22"></path><path d="M635.34,377.85c4.45,12,17.91,55.22-8.47,74.64,0,0-19.71,10.5-31.68-15.43,0,0-3.39,1.15-9.43-9.56,0,0-4.45-12.91,5-13.33a2.85,2.85,0,0,0,2.76-3.57c-2.65-9.55-4.77-32.75,37.29-35.69A4.66,4.66,0,0,1,635.34,377.85Z" class="cls-11"></path><path d="M766.08,545.3s7.63-20.48,15.78-22.89c0,0,36-15.75,55.73-9.55,0,0,8.16,10.81-18.75,21.62,0,0-36.55,10-40.79,21.63C778.05,556.11,768,553.91,766.08,545.3Z" class="cls-11"></path><path d="M1164.32,672,616,667.4,558.11,510,439,540.47V774h725.29Z" class="cls-3"></path><path d="M1164.32,774H439v55h725.29Z" class="cls-17"></path><path d="M565.1,528l-105.41,27.3V737.63h704.63V671H616Z" class="cls-17"></path><path d="M517,670.23c-3.82-45.67,12.39-72.86-16.42-116.64-3.82-5.67-7.53-11.76-3.71-13.65,17.27-13.33,28.81,4.52,46.08-3.15,9.54-4.2,14.73-28.66,25.11-31.18-7.94-.42-92.7-3.78-113.36,28.24,0,0,12.82,12.18,14.09,53.34,0,0-28.18,132.7,24.37,139,0,0,32,28,128.08,0,0,0,.85-7.14,1.7-19-6.14,5.45-21.4-6.2-28.5-2.94C559.7,719.36,518.91,721.57,517,670.23Z" class="cls-5"></path><path d="M568.6,505.61H568a183.92,183.92,0,0,0-30.2,9.77c-17.27,7.66-38.46,0-55.72,13.33-3.82,1.89-3.82,9.55,0,15.22,28.81,43.78,7.73,95.22,11.54,140.89,1.91,51.45,74.91,51.45,109.55,36.22,7.1-3.25,13.45-8.29,19.6-13.85C626,659.31,628.25,535.43,568.6,505.61Z" class="cls-3"></path><path d="M888.55,1030.54c252.59,0,457.36-9.26,457.36-20.68s-204.77-20.68-457.36-20.68-457.36,9.26-457.36,20.68S636,1030.54,888.55,1030.54Z" class="cls-5"></path><path d="M593.39,620.05c-23.84-38.85-28.07-83.78-23.31-128-25.42,9.34-28.39,33.81-28.39,33.81-14.09,134.69,29.45,139.21,29.45,139.21C599.32,760.31,698,743.83,698,743.83c-1.91-22.47,7-46.09,16.63-64.36C668.93,671.7,618.61,663.41,593.39,620.05Z" class="cls-23"></path><path d="M783.77,549.81l-15.36-11.34-42.27,45.46c-32.1,25.51-40.9-20.79-40.9-20.79-9-84.09-58.9-77.68-58.9-77.68-17.9,19.63-40.26,3.15-40.26,3.15A60.22,60.22,0,0,0,570.19,492c-4.77,44.2-.53,89.14,23.31,128C618.71,663.3,669,671.6,714.59,679.36a216.21,216.21,0,0,1,20.55-32.12c-21.82-1.26-29.45-8.93-29.45-8.93C748,639.68,783.77,549.81,783.77,549.81Z" class="cls-24"></path><path d="M696.26,720.73c8.16,18.69,74.48,62,94.08,28.34,38.67-12,65-34.64,101.7-14.17,69,41.79,215.07,65.72,250.13,6.41V661.62s-42.8-28.13-137.4-16.17c0,0-59.75,8.61-107.22-2.94,0,0-48.73-26-117.81-13.64C718.93,645.14,680.79,683.35,696.26,720.73Z" class="cls-3"></path><path d="M898.82,701.41c-36.65-20.47-79.35,6.83-118.12,18.69-22.36,5.14-55,15.33-63.14-3.36-15.47-37.48,21.82-67.09,62-88.08-26.69,4.83-56.36,15.32-87.4,35.27,0,0-101.39,55.33-74.58,149.82,0,0,108.59-15.33,203.09,0,0,0,212.52,27.19,321.43,0V741C1067.49,771.65,967.79,743.3,898.82,701.41Z" class="cls-5"></path><path d="M461.71,1011.64a22.57,22.57,0,1,0-22.78-22.56A22.66,22.66,0,0,0,461.71,1011.64Z" class="cls-6"></path><path d="M613.1,1011.64a22.57,22.57,0,1,0-22.78-22.56A22.66,22.66,0,0,0,613.1,1011.64Z" class="cls-6"></path><path d="M1159.87,1011.64a22.57,22.57,0,1,0-22.78-22.56A22.66,22.66,0,0,0,1159.87,1011.64Z" class="cls-6"></path><path d="M1331,1011.64a22.57,22.57,0,1,0-22.77-22.56A22.66,22.66,0,0,0,1331,1011.64Z" class="cls-6"></path><path d="M634.71,392.54s-7.31-.52-8.48,4.2l4.24,23.31h-6.36" class="cls-13"></path><path d="M631.32,433.49h-8.58" class="cls-13"></path><path d="M649.65,520a11.24,11.24,0,1,0-11.34-11.24A11.28,11.28,0,0,0,649.65,520Z" class="cls-22"></path><path d="M711.84,631.49a11.24,11.24,0,1,0-11.34-11.23A11.28,11.28,0,0,0,711.84,631.49Z" class="cls-22"></path><path d="M707.92,686.19c1.9-4.31-.43-12.08,1.69-16.06-83.48-37.38-87.72-13.13-111.88-52.5C573.16,577.74,612,533.75,570.61,492a44,44,0,0,0-28.39,33.81C529.3,648.5,564.36,663.2,570.72,664.88c-.11,0-.21-.11-.32-.11.11,0,.21.11.32.11a3.48,3.48,0,0,0,.95.21.38.38,0,0,0,.11.21A329.67,329.67,0,0,0,707.92,686.19Z" class="cls-24"></path><path d="M709.51,670.23s35.91-8.92,47.35,0a47.89,47.89,0,0,0,9.11,5s20.13,7.66-2.86,18.06c0,0-31.68.94-56.15-7.14Z" class="cls-11"></path><path d="M562.46,533.12a11.24,11.24,0,1,0-11.34-11.24A11.28,11.28,0,0,0,562.46,533.12Z" class="cls-22"></path><path d="M571.25,659a11.24,11.24,0,1,0-11.34-11.24A11.29,11.29,0,0,0,571.25,659Z" class="cls-22"></path><path d="M552.71,541.2c-3.28,15.12-3.81,30.87-2.86,46.3.64,11.55,1.69,23.94,5.72,34.86.32.84,1.59.42,1.27-.32-3.92-10.92-5-23.1-5.61-34.54-.85-15.33-.43-30.86,2.86-46C554.19,540.68,552.92,540.36,552.71,541.2Z" class="cls-7"></path><path d="M589.9,659.1c12.82,7.25,27.65,11.24,42,14.6,17.69,4,35.81,6.5,53.92,6.4a.69.69,0,0,0,0-1.37,236.3,236.3,0,0,1-53.6-6.3c-14.2-3.25-28.82-7.24-41.64-14.38C589.79,657.53,589.15,658.68,589.9,659.1Z" class="cls-7"></path><path d="M582.59,538S567.22,629.5,638,646.19C638,646.19,580.68,636.64,582.59,538Z" class="cls-23"></path><path d="M700.5,638.1s-32.74-5.35-39.52-46C661,592.12,670.2,625.61,700.5,638.1Z" class="cls-23"></path><path d="M590.85,500.05c12,5.14,28.92,4,37.82-6.41.53-.63-.42-1.57-.95-.94-8.48,10-24.79,11.13-36.24,6.19C590.74,498.58,590,499.73,590.85,500.05Z" class="cls-7"></path><path d="M1158.91,819.21V577.53a9.68,9.68,0,0,1,9.75-9.66h-21.29a9.68,9.68,0,0,0-9.75,9.66V819.21a9.68,9.68,0,0,0,9.75,9.65h21.29A9.74,9.74,0,0,1,1158.91,819.21Z" class="cls-17"></path><path d="M1336.16,567.87h-21.29a9.68,9.68,0,0,1,9.74,9.66V819.21a9.68,9.68,0,0,1-9.74,9.65h21.29a9.68,9.68,0,0,0,9.75-9.65V577.53A9.68,9.68,0,0,0,1336.16,567.87Z" class="cls-3"></path><path d="M1324.61,819.21V577.53a9.68,9.68,0,0,0-9.74-9.66H1168.66a9.68,9.68,0,0,0-9.75,9.66V819.21a9.68,9.68,0,0,0,9.75,9.65h146.21A9.74,9.74,0,0,0,1324.61,819.21ZM1245.89,607a4.72,4.72,0,0,1-4.76,4.72h-54.56a4.72,4.72,0,0,1-4.77-4.72V594.12a4.72,4.72,0,0,1,4.77-4.73h54.56a4.73,4.73,0,0,1,4.76,4.73Zm72,4.62h-54.55a4.72,4.72,0,0,1-4.77-4.73V594a4.72,4.72,0,0,1,4.77-4.72h54.55a4.72,4.72,0,0,1,4.77,4.72v12.91A4.72,4.72,0,0,1,1317.93,611.65Z" class="cls-3"></path><path d="M1313,784H1193.23a10.58,10.58,0,0,1-10.59-10.5V665.09a10.58,10.58,0,0,1,10.59-10.5H1313a10.57,10.57,0,0,1,10.59,10.5V773.54A10.58,10.58,0,0,1,1313,784Z" class="cls-5"></path><path d="M1400.57,817.53l-21.18,95.22h292.39L1657,817.53Z" class="cls-5"></path><path d="M1528.76,898.57c70.8,0,128.19-32.52,128.19-72.65s-57.39-72.65-128.19-72.65-128.19,32.53-128.19,72.65S1458,898.57,1528.76,898.57Z" class="cls-17"></path><path d="M1528.76,891.33c70.8,0,128.19-32.53,128.19-72.65S1599.56,746,1528.76,746s-128.19,32.53-128.19,72.65S1458,891.33,1528.76,891.33Z" class="cls-3"></path><path d="M1437.64,852.91h185.41S1533.85,757.89,1437.64,852.91Z" class="cls-5"></path><path d="M1578.23,856.9c6-8.09,8.27-15.65,6.68-22.37a12.23,12.23,0,0,0-1.37-3.57l-1-14.8c-.53-12.6-6.78-15.64-14.09-14.49,0,0-72.89,12.92-73.11,12.92v-5.15l-6.25,6.09h-10.69l-6.25-6.09v27.09a6.17,6.17,0,0,0,6.25,6.19H1493a6.86,6.86,0,0,0,2.11-.31,7.61,7.61,0,0,0,2.23.31h4.45a7.92,7.92,0,0,0-.22,3.57,5.32,5.32,0,0,0,5.2,4.52,1.76,1.76,0,0,0,.74-.11,5.32,5.32,0,0,0,4.55-5.25c.85-.84,3.39-2,5.73-2.73h30a7.78,7.78,0,0,0-.21,3.57,5.29,5.29,0,0,0,5.18,4.52,1.71,1.71,0,0,0,.74-.11,5.32,5.32,0,0,0,4.56-5.25c.85-.84,3.39-2,5.72-2.73h12.61a28.45,28.45,0,0,1-5,9.24,22.86,22.86,0,0,0-4.14,9.14c-1.27,6.71.86,10.28,2.87,12.07a4.4,4.4,0,0,0,6-.32,4,4,0,0,0-.32-5.88c-.43-.42-.74-1.89-.21-4.3A15.05,15.05,0,0,1,1578.23,856.9Z" class="cls-7"></path><path d="M1479.71,831.59a8.21,8.21,0,0,1,6.67,0" class="cls-25"></path><path d="M1363.7,132.07H1183.81V352.65H1363.7Z" class="cls-5"></path><path d="M1350.67,144H1196.84V340.78h153.83Z" class="cls-7"></path><path d="M1211.46,272.86h126.18L1309,242.62l-11.33,11.24-28.19-37.06-30.08,45.66-10.59-11.33Z" class="cls-5"></path><path d="M1255,275.9s21.62,7.25,4,17.54a27.59,27.59,0,0,1-7.09,2.83c-16.21,4-74.27,14.91,4,40.42h81.68s-127-19.63-71.51-34.64a38.27,38.27,0,0,0,11.33-5c7.84-5.36,16-14.81-12.07-20.9H1255Z" class="cls-14"></path><path d="M1321,185.2a9.24,9.24,0,1,0-9.32-9.24A9.28,9.28,0,0,0,1321,185.2Z" class="cls-21"></path><path d="M1268,310h40.26" class="cls-4"></path><path d="M1219.19,283.36h34.54" class="cls-4"></path><path d="M1212.53,288.5H1232" class="cls-4"></path><path d="M1299.71,315h37.93" class="cls-4"></path><path d="M1281.49,304.25h56.15" class="cls-4"></path><path d="M1238,182.36a13.82,13.82,0,0,0-11.12,5.77,9.4,9.4,0,0,0-5.1-1.47,9.24,9.24,0,1,0,5.1,17A13.55,13.55,0,1,0,1238,182.36Z" class="cls-14"></path><path d="M1305.32,221.84a6.7,6.7,0,0,1,5.52,2.83,5.1,5.1,0,0,1,2.54-.74,4.62,4.62,0,1,1,0,9.24,5.1,5.1,0,0,1-2.54-.73,7,7,0,0,1-5.52,2.83,6.72,6.72,0,1,1,0-13.43Z" class="cls-14"></path><path d="M257.34,810.18s3.6-35.28,37.29-50.61c12.19-5.56,21.3-16.37,23.84-29.39a32.09,32.09,0,0,0-.11-13.86A77.51,77.51,0,0,1,315,685.77a38.3,38.3,0,0,1,8.8-20.58c5.29-6.4,12.5-17.43,13.35-31.6a36.33,36.33,0,0,0-8.48-24.88,50.64,50.64,0,0,1-10.81-39.58s5.94-41.68-22-45.25c0,0-31.78,2.41-27.76,50.92,0,0,4.35,23.94-5.4,40.1,0,0-21.08,20.68-8.16,60.37,0,0,9.75,22.15-5.08,37.8C249.4,713.07,225.56,738.47,257.34,810.18Z" class="cls-26"></path><path d="M228.42,831.38s3.49-53.75-39.52-76.64c0,0-12.5-28.55-4.66-50,0,0,12.08-25.62,8.48-55,0,0-24.16-34.44-5.83-72.55,0,0,23.52-16,24.47-52.07,0,0,1.59-52.07,30.2-50.92,0,0,31.46,9.24,18.64,67.72,0,0-8.69,28.45-1.8,50.08,0,0,17.37,29.39-2.75,75.27,0,0-13.78,25.2-1.7,47C253.85,714.43,273.13,750.23,228.42,831.38Z" class="cls-21"></path><path d="M235.62,522.73,227.36,854.8" class="cls-18"></path><path d="M289.76,574.27,252.36,851" class="cls-18"></path><path d="M208.4,829.6s-4-32-35-45.25C162.2,779.52,153.62,769.86,151,758a28.2,28.2,0,0,1-.21-12.6s6.89-20.47-.63-41.15c0,0-26.38-20.9-15.89-51.45A46,46,0,0,0,148,611.23s-6.36-37.8,19.07-41.68c0,0,29,1.47,26.38,45.77,0,0-3.39,21.95,5.83,36.43,0,0,19.7,18.38,8.68,54.81,0,0-8.37,20.47,5.41,34.33C213.38,740.89,235.73,763.56,208.4,829.6Z" class="cls-26"></path><path d="M172.16,632.12,208.4,829.6" class="cls-18"></path><path d="M275.56,914H187.63L178.1,823.3h107Z" class="cls-27"></path><path d="M275.56,914H187.63L178.1,823.3h107Z" class="cls-5"></path><path d="M190.07,838.42H270.9" class="cls-18"></path><path d="M190.07,902.35H270.9" class="cls-18"></path></g></g></svg>