<?xml version="1.0" standalone="no"?><!DOCTYPE svg PUBLIC "-//W3C//DTD SVG 1.1//EN" "http://www.w3.org/Graphics/SVG/1.1/DTD/svg11.dtd"><svg t="1629366229766" class="icon" viewBox="0 0 1024 1024" version="1.1" xmlns="http://www.w3.org/2000/svg" p-id="2749" xmlns:xlink="http://www.w3.org/1999/xlink" width="200" height="200"><defs><style type="text/css"></style></defs><path d="M108.16 128h775.36a32 32 0 0 1 32 32v324.16l12.48 28.16v141.344l-12.48 20.992v177.92a64 64 0 0 1-64 64h-65.76l-29.024 11.424h-119.2l-23.296-11.424H172.16a64 64 0 0 1-64-64V128z" fill="#FFFFFF" p-id="2750"></path><path d="M569.44 672l38.464 32H352v192h-32v-192H128v-32h192v-160H128v-32h192v-160H128V288h192V128h32v160h320V128h32v160h192v32h-192v160h192v32H352v160h217.44zM352 480h320v-160H352v160z" fill="#ACB4C0" p-id="2751"></path><path d="M896 672l32-22.688V880a48 48 0 0 1-48 48h-131.904l52.096-32H880a16 16 0 0 0 16-16V672z m-255.68 224v32H128a32 32 0 0 1-32-32V128a32 32 0 0 1 32-32h768a32 32 0 0 1 32 32v384h-32V128H128v768h512.32zM320 288h384v224H320V288z m32 32v160h320v-160H352z" fill="#5D6D7E" p-id="2752"></path><path d="M336 304h352v192h-352z" fill="#F0F0F0" fill-opacity=".5" p-id="2753"></path><path d="M320 288h384v224H320V288z m32 32v160h320v-160H352z" fill="#30AD98" p-id="2754"></path><path d="M543.968 544.096H928v63.264L800.224 704v160.32L672 928v-224l-128.032-96.64v-63.264z m32 47.328L704 688.064v188.32l64.224-31.904v-156.384L896 591.456v-15.36H575.968v15.328z" fill="#27A2DF" p-id="2755"></path></svg>